<?xml version="1.0" encoding="UTF-8"?>
<svg version="1.1" xmlns="http://www.w3.org/2000/svg" width="1536" height="1024">
<path d="M0 0 C506.88 0 1013.76 0 1536 0 C1536 337.92 1536 675.84 1536 1024 C1029.12 1024 522.24 1024 0 1024 C0 686.08 0 348.16 0 0 Z " fill="#101114" transform="translate(0,0)"/>
<path d="M0 0 C19.8 0 39.6 0 60 0 C68.5 26.0625 68.5 26.0625 71.12695312 34.12915039 C75.9190035 48.81239677 80.85534503 63.43643518 86 78 C86.28736126 64.22349696 85.17816934 50.51904501 84.28173828 36.77978516 C84.06931177 33.50186588 83.86262861 30.2236173 83.65625 26.9453125 C83.59062866 25.96982452 83.52500732 24.99433655 83.45739746 23.98928833 C82.95298434 15.94430509 83 8.11305418 83 0 C101.81 0 120.62 0 140 0 C140 62.04 140 124.08 140 188 C121.19 188 102.38 188 83 188 C72.63201791 160.35204776 72.63201791 160.35204776 69.5078125 151.69140625 C69.15032928 150.70349594 68.79284607 149.71558563 68.42453003 148.69773865 C67.68988684 146.6664973 66.95591619 144.63501258 66.22265625 142.60327148 C65.10611915 139.51019552 63.98678181 136.41814238 62.8671875 133.32617188 C62.14306646 131.32297547 61.41910208 129.31972244 60.6953125 127.31640625 C60.3671756 126.4100795 60.0390387 125.50375275 59.70095825 124.56996155 C57.71893876 119.07245457 55.81991835 113.55329929 54 108 C54.73117068 124.19927562 56.01339243 140.34037647 57.34594727 156.49975586 C57.62076632 159.84462128 57.89069381 163.18985566 58.16015625 166.53515625 C58.24451431 167.53950211 58.32887238 168.54384796 58.41578674 169.57862854 C58.49264206 170.53760544 58.56949738 171.49658234 58.64868164 172.48461914 C58.71672501 173.31111465 58.78476837 174.13761017 58.85487366 174.989151 C59.06369013 179.32134078 59 183.66278055 59 188 C39.53 188 20.06 188 0 188 C0 125.96 0 63.92 0 0 Z " fill="#FDFDFD" transform="translate(785,353)"/>
<path d="M0 0 C19.34134479 14.24286104 27.0548713 36.59315036 30.546875 59.56640625 C33.22985475 79.80733915 33.37328784 102.35703546 29.671875 122.44140625 C29.54296875 123.16634277 29.4140625 123.8912793 29.28125 124.63818359 C25.59464293 144.86758653 17.70738154 163.10568193 0.609375 175.56640625 C-16.41348216 186.44939527 -39.45813435 188.10764895 -58.96875 184.7890625 C-76.79588643 180.44416419 -90.73133214 169.96623963 -100.328125 154.44140625 C-118.24239588 122.38206096 -117.61570438 76.24235629 -108.37866211 41.50537109 C-103.14142278 23.31103187 -94.14700255 6.79521881 -77.3671875 -3.09375 C-53.5772896 -14.5606031 -22.33213753 -14.95054174 0 0 Z " fill="#FEFEFE" transform="translate(1048.328125,359.55859375)"/>
<path d="M0 0 C107.8562643 0 107.8562643 0 122.0625 13.4375 C132.70763686 25.52695192 135.12014201 39.6608546 135.203125 55.28515625 C135.20882507 56.14451279 135.21452515 57.00386932 135.22039795 57.88926697 C135.22978237 59.69854528 135.23635558 61.50784018 135.24023438 63.31713867 C135.24988939 66.03140514 135.28095517 68.74489645 135.3125 71.45898438 C135.4926449 100.85816183 135.4926449 100.85816183 127.80078125 109.5234375 C122.70048179 113.70546179 116.28798604 115.39455675 110 117 C111.19496094 117.45439453 111.19496094 117.45439453 112.4140625 117.91796875 C122.27671194 121.81743477 127.37158984 124.83547511 132.01953125 134.59765625 C133.56298337 138.3794214 134.12855301 141.68881716 134.20532227 145.76855469 C134.22550415 146.7222998 134.24568604 147.67604492 134.26647949 148.65869141 C134.29119324 150.15021729 134.29119324 150.15021729 134.31640625 151.671875 C134.33505737 152.59178223 134.3537085 153.51168945 134.3729248 154.45947266 C134.44112539 157.8895525 134.50133603 161.31978746 134.5625 164.75 C134.7790625 176.25875 134.7790625 176.25875 135 188 C114.87 188 94.74 188 74 188 C73.625 162.8125 73.625 162.8125 73.52197266 154.88208008 C73.48676015 152.80288417 73.45083817 150.7237001 73.4140625 148.64453125 C73.40270264 147.56892944 73.39134277 146.49332764 73.37963867 145.38513184 C73.35957764 144.35029663 73.3395166 143.31546143 73.31884766 142.24926758 C73.30552399 141.35436111 73.29220032 140.45945465 73.2784729 139.53742981 C72.96457568 136.67721552 72.30334001 134.56401206 71 132 C67.61430493 129.43126321 67.61430493 129.43126321 61 129 C61 148.47 61 167.94 61 188 C40.87 188 20.74 188 0 188 C0 125.96 0 63.92 0 0 Z " fill="#FEFEFE" transform="translate(641,353)"/>
<path d="M0 0 C27.06 0 54.12 0 82 0 C85.75 20.3125 85.75 20.3125 86.90527344 26.59106445 C88.82671584 36.98376567 90.87723657 47.33747788 93.08447266 57.6730957 C94.41337637 63.91114526 95.61497185 70.17311238 96.8125 76.4375 C97.06782509 77.76533964 97.32336633 79.09313773 97.57910156 80.42089844 C98.115901 83.20807396 98.65212741 85.99535873 99.18798828 88.78271484 C100.39382098 95.05018807 101.6103615 101.31557755 102.82839966 107.58068848 C103.25252856 109.76301051 103.67595699 111.94546773 104.09936523 114.12792969 C105.69948682 122.36696688 107.31469565 130.60288389 108.94519043 138.83596802 C109.8629178 143.47067047 110.7780454 148.10588518 111.6932373 152.74108887 C112.14441893 155.02187862 112.59695403 157.30240109 113.05090332 159.5826416 C113.69093519 162.79793006 114.32635359 166.01410128 114.9609375 169.23046875 C115.15229279 170.18529648 115.34364807 171.14012421 115.540802 172.12388611 C115.71860199 173.02941727 115.89640198 173.93494843 116.07958984 174.86791992 C116.31106216 176.03408089 116.31106216 176.03408089 116.54721069 177.22380066 C117.1838722 181.12738059 117.56322587 185.06903287 118 189 C96.55 189 75.1 189 53 189 C51 172 51 172 51 165 C43.74 165 36.48 165 29 165 C28.01 172.92 27.02 180.84 26 189 C5.87 189 -14.26 189 -35 189 C-29.90585533 160.25446938 -24.77349378 131.529481 -19.31439209 102.85168457 C-15.82149871 84.49578617 -12.46432292 66.11850658 -9.21850586 47.71728516 C-6.38107939 31.7515592 -3.18293742 15.91468712 0 0 Z " fill="#FDFDFD" transform="translate(1248,352)"/>
<path d="M0 0 C21.12 0 42.24 0 64 0 C64.99912584 3.99650336 65.40209299 7.83575534 65.7265625 11.921875 C65.86929802 13.63396585 66.01221202 15.34604182 66.15527344 17.05810547 C66.23128784 17.98089294 66.30730225 18.90368042 66.38562012 19.85443115 C68.28937844 42.88252876 70.50032803 65.87871572 72.75 88.875 C72.83034737 89.69685287 72.91069473 90.51870575 72.99347687 91.36546326 C73.99187666 101.57734758 74.99386507 111.78887469 76 122 C76.33 122 76.66 122 77 122 C77.07659348 121.22962402 77.15318695 120.45924805 77.23210144 119.66552734 C83.74862529 54.14054527 83.74862529 54.14054527 86.55801392 26.94677734 C86.768622 24.90586395 86.9782439 22.86484853 87.18685913 20.82373047 C87.47322236 18.0254055 87.76333868 15.22749717 88.0546875 12.4296875 C88.13667892 11.62256317 88.21867035 10.81543884 88.30314636 9.9838562 C88.66509525 6.54875508 89.15984394 3.36062423 90 0 C110.79 0 131.58 0 153 0 C151.8751158 8.99907361 151.8751158 8.99907361 151.09545898 12.77148438 C150.83354012 14.05070015 150.83354012 14.05070015 150.56632996 15.35575867 C150.37815201 16.25929581 150.18997406 17.16283295 149.99609375 18.09375 C149.79724075 19.06161942 149.59838776 20.02948883 149.39350891 21.02668762 C148.74418272 24.18501613 148.09079627 27.34249056 147.4375 30.5 C146.52322124 34.94109463 145.61115586 39.38264276 144.69921875 43.82421875 C144.47005768 44.93903122 144.24089661 46.05384369 144.00479126 47.20243835 C142.57246781 54.17910524 141.15932668 61.15927067 139.76953125 68.14453125 C139.59622787 69.01532318 139.4229245 69.88611511 139.24436951 70.78329468 C138.59472186 74.05127536 137.94582182 77.31939507 137.30123901 80.58837891 C135.36005503 90.43294514 133.31224237 100.25024919 131.1953125 110.05859375 C127.70090987 126.26173582 124.41013066 142.50331973 121.125 158.75 C119.10375 168.7325 117.0825 178.715 115 189 C88.6 189 62.2 189 35 189 C33.0509375 178.3265625 33.0509375 178.3265625 31.0625 167.4375 C27.71189475 149.13737678 24.26564586 130.85812403 20.73883057 112.59121704 C18.23669761 99.61854792 15.83875134 86.63496452 13.59057617 73.61599731 C11.20809205 59.84472702 8.53382505 46.1341988 5.80249023 32.42822266 C5.63911163 31.60355499 5.47573303 30.77888733 5.30740356 29.92922974 C5.00951043 28.42653033 4.70952632 26.92424226 4.40646362 25.4225769 C2.73388781 16.97596737 1.4178064 8.5068384 0 0 Z " fill="#FDFDFD" transform="translate(1076,352)"/>
<path d="M0 0 C36.63 0 73.26 0 111 0 C111 19.47 111 38.94 111 59 C104.53010668 59 98.27027807 58.90178317 91.8515625 58.37890625 C91.03174896 58.31468979 90.21193542 58.25047333 89.36727905 58.18431091 C87.65469438 58.04918211 85.94226062 57.91212766 84.22998047 57.77319336 C81.61075989 57.56134825 78.99100314 57.35742663 76.37109375 57.15429688 C74.69787936 57.02130189 73.02470084 56.8878546 71.3515625 56.75390625 C70.57237457 56.6934462 69.79318665 56.63298615 68.99038696 56.57069397 C65.52669474 56.28537011 62.38426103 55.84606526 59 55 C59 63.25 59 71.5 59 80 C69.23 80 79.46 80 90 80 C90 88.91 90 97.82 90 107 C79.77 107 69.54 107 59 107 C59 115.58 59 124.16 59 133 C63.104375 132.690625 67.20875 132.38125 71.4375 132.0625 C84.94970326 131.07153567 98.45959732 130.43943787 112 130 C112.03047951 134.22914973 112.04726345 138.45827013 112.0625 142.6875 C112.07087891 143.82767578 112.07925781 144.96785156 112.08789062 146.14257812 C112.1249897 160.12892846 111.48326373 173.98535178 111 188 C74.37 188 37.74 188 0 188 C0 125.96 0 63.92 0 0 Z " fill="#FEFEFE" transform="translate(521,353)"/>
<path d="M0 0 C14.64983121 11.25746617 23.51212876 28.24363986 28 46 C28 47.32 28 48.64 28 50 C-4.2561678 56.02009978 -4.2561678 56.02009978 -17.25 57.875 C-18.49559692 58.05446167 -18.49559692 58.05446167 -19.76635742 58.23754883 C-23.53367634 58.75436658 -27.19547986 59.13696273 -31 59 C-31.13277344 57.94039063 -31.26554687 56.88078125 -31.40234375 55.7890625 C-31.58053875 54.40101721 -31.7589346 53.01299769 -31.9375 51.625 C-32.02451172 50.92632812 -32.11152344 50.22765625 -32.20117188 49.5078125 C-32.66318128 45.63216425 -32.66318128 45.63216425 -34 42 C-35.65 42.33 -37.3 42.66 -39 43 C-45.06144394 58.15360986 -44.3220812 75.09844377 -44.26074219 91.15039062 C-44.24992844 94.52231452 -44.26074647 97.89371622 -44.2734375 101.265625 C-44.27211723 103.43750116 -44.2695576 105.609377 -44.265625 107.78125 C-44.26967346 108.77515747 -44.27372192 109.76906494 -44.27789307 110.79309082 C-44.2303467 117.92383067 -44.0447428 124.9328858 -40 131 C-38.02 131.33 -36.04 131.66 -34 132 C-33.01 126.39 -32.02 120.78 -31 115 C-19.42878186 116.28896446 -8.33939128 118.61090825 2.96606445 121.3684082 C5.8511648 122.07192826 8.73876473 122.76435562 11.62695312 123.45507812 C13.46629672 123.89781109 15.30549523 124.3411474 17.14453125 124.78515625 C18.00585159 124.99245865 18.86717194 125.19976105 19.7545929 125.41334534 C25.76527878 126.88263939 25.76527878 126.88263939 28 128 C26.76102862 145.75858977 15.6001387 161.08537532 3.0625 172.8125 C-11.66029582 185.12979966 -30.73184987 185.35100068 -49 184 C-60.82812448 182.42672772 -73.32587554 176.25160264 -82 168 C-82 167.34 -82 166.68 -82 166 C-82.99 165.67 -83.98 165.34 -85 165 C-86.58032858 163.09117615 -87.98702706 161.22887626 -89.375 159.1875 C-89.77420654 158.60218506 -90.17341309 158.01687012 -90.5847168 157.41381836 C-103.72863092 137.5709722 -105.42958968 113.72966722 -105.375 90.625 C-105.37445618 89.75381531 -105.37391235 88.88263062 -105.37335205 87.98504639 C-105.29063618 59.02588938 -102.17515501 28.2073933 -81.30859375 6.25 C-60.47582108 -14.0540221 -24.07027004 -16.72995549 0 0 Z " fill="#FDFDFD" transform="translate(235,361)"/>
<path d="M0 0 C21.45 0 42.9 0 65 0 C65.33 10.23 65.66 20.46 66 31 C66.40999433 36.61340803 66.84267313 42.16248456 67.4375 47.75 C67.57095057 49.07738556 67.7034992 50.40486207 67.83520508 51.73242188 C68.21289625 55.48946731 68.60438932 59.24480545 69 63 C69.21393883 65.07808415 69.42751424 67.15620577 69.640625 69.234375 C70.080466 73.49109637 70.53404025 77.74606156 71 82 C72.32 82 73.64 82 75 82 C74.95975708 81.15477783 74.95975708 81.15477783 74.91870117 80.29248047 C74.67517538 70.47058682 76.0817654 60.84577706 77.3125 51.125 C79.44242051 34.10163831 81.23394771 17.07183878 83 0 C102.8 0 122.6 0 143 0 C139.62573276 12.37231323 139.62573276 12.37231323 137.80200195 17.88110352 C137.18828987 19.74288994 137.18828987 19.74288994 136.56217957 21.64228821 C136.12099247 22.97119819 135.67968964 24.30006976 135.23828125 25.62890625 C134.76983875 27.04497755 134.30164955 28.46113267 133.83369446 29.87736511 C133.09500611 32.11292131 132.35611167 34.34840678 131.61614132 36.58353901 C129.79501413 42.08777135 127.99504213 47.59866076 126.20263672 53.11230469 C125.16111539 56.31096683 124.11825013 59.50918752 123.07421875 62.70703125 C122.68598183 63.89629526 122.68598183 63.89629526 122.28990173 65.10958481 C119.03703467 75.05221384 115.62109518 84.89973603 111.95703125 94.69921875 C100.01201827 127.22172278 99.3248544 154.06121494 100 189 C80.86 189 61.72 189 42 189 C42.20625 180.069375 42.4125 171.13875 42.625 161.9375 C42.59038695 133.33711848 36.91558646 109.85418664 26.74168396 83.07788086 C22.44377725 71.73867416 18.86140676 60.20691006 15.32058716 48.61309814 C13.74734441 43.46211289 12.15412773 38.31746883 10.55078125 33.17578125 C10.25874313 32.23768616 9.96670502 31.29959106 9.66581726 30.33306885 C7.31844446 22.86111876 4.77379046 15.4666338 2.11653137 8.09944153 C0 2.19803601 0 2.19803601 0 0 Z " fill="#FDFDFD" transform="translate(254,352)"/>
<path d="M0 0 C37.62 0 75.24 0 114 0 C114 18.81 114 37.62 114 57 C95.61164825 57 95.61164825 57 87.90625 56.5625 C87.06324341 56.51810791 86.22023682 56.47371582 85.35168457 56.42797852 C82.73422686 56.28926167 80.1171288 56.14477527 77.5 56 C75.69403118 55.90325747 73.88804162 55.80690118 72.08203125 55.7109375 C67.72104799 55.47909788 63.36060026 55.2394055 59 55 C59 64.57 59 74.14 59 84 C69.89 84 80.78 84 92 84 C92 92.58 92 101.16 92 110 C81.11 110 70.22 110 59 110 C59 135.74 59 161.48 59 188 C39.53 188 20.06 188 0 188 C0 125.96 0 63.92 0 0 Z " fill="#FEFEFE" transform="translate(398,353)"/>
<path d="M0 0 C0.65097656 0.22300781 1.30195312 0.44601562 1.97265625 0.67578125 C2.96265625 1.00578125 3.95265625 1.33578125 4.97265625 1.67578125 C6.03858125 6.25925875 5.75748642 8.41202028 3.97265625 12.67578125 C3.50809122 15.6651562 3.22220532 18.6614912 2.97265625 21.67578125 C8.42680862 19.24019777 12.2575066 17.51837615 14.78515625 11.85546875 C17.16350297 6.64292553 19.8673437 2.55891535 24.97265625 -0.32421875 C27.91015625 -0.19921875 27.91015625 -0.19921875 29.97265625 0.67578125 C30.46765625 2.16078125 30.46765625 2.16078125 30.97265625 3.67578125 C32.62265625 3.67578125 34.27265625 3.67578125 35.97265625 3.67578125 C36.17455714 10.03565929 35.60043955 15.52799254 33.97265625 21.67578125 C39.06841153 17.71791307 42.491914 14.32561969 45.1171875 8.41015625 C46.31034953 5.99114283 47.55378684 4.84856642 49.97265625 3.67578125 C52.59765625 3.36328125 52.59765625 3.36328125 54.97265625 3.67578125 C56.97265625 5.67578125 56.97265625 5.67578125 56.97265625 7.98828125 C55.5575006 11.79151207 53.2186843 13.33864105 49.97265625 15.67578125 C48.98265625 16.00578125 47.99265625 16.33578125 46.97265625 16.67578125 C46.47765625 19.15078125 46.47765625 19.15078125 45.97265625 21.67578125 C47.72480731 20.74230767 49.47429188 19.80382805 51.22265625 18.86328125 C52.68445313 18.08017578 52.68445313 18.08017578 54.17578125 17.28125 C59.00785698 14.50753055 61.28254847 12.82357765 63.22265625 7.48828125 C63.5578125 6.58722656 63.89296875 5.68617188 64.23828125 4.7578125 C64.60179687 3.72720703 64.60179687 3.72720703 64.97265625 2.67578125 C66.29265625 3.00578125 67.61265625 3.33578125 68.97265625 3.67578125 C68.64265625 5.98578125 68.31265625 8.29578125 67.97265625 10.67578125 C69.62265625 9.02578125 71.27265625 7.37578125 72.97265625 5.67578125 C74.91015625 6.23828125 74.91015625 6.23828125 76.97265625 7.67578125 C78.16668583 12.65090449 78.06187542 17.59028879 77.97265625 22.67578125 C82.3214381 19.30325655 85.5168804 16.12793395 88.59765625 11.55078125 C93.13516874 4.8405178 93.13516874 4.8405178 96.97265625 2.67578125 C100.16015625 2.30078125 100.16015625 2.30078125 102.97265625 2.67578125 C103.96265625 3.66578125 103.96265625 3.66578125 104.97265625 4.67578125 C104.59765625 6.80078125 104.59765625 6.80078125 103.97265625 8.67578125 C102.98265625 7.19078125 102.98265625 7.19078125 101.97265625 5.67578125 C98.87943933 5.89672532 97.91505838 6.73497906 95.72265625 8.98828125 C92.78003194 13.66659411 93.66391566 19.37573442 93.97265625 24.67578125 C98.72537742 23.90208245 101.04449564 22.45221122 103.97265625 18.67578125 C106.40376019 15.06719064 108.71316386 11.39385085 110.97265625 7.67578125 C111.46765625 8.66578125 111.46765625 8.66578125 111.97265625 9.67578125 C109.02503319 17.32602662 105.78689184 25.18728322 97.97265625 28.67578125 C94.28515625 29.05078125 94.28515625 29.05078125 90.97265625 27.67578125 C89.16137513 24.82567714 88.01449463 21.87894894 86.97265625 18.67578125 C86.41578125 19.48015625 85.85890625 20.28453125 85.28515625 21.11328125 C82.75401138 23.91806341 81.64686491 24.3695972 77.97265625 24.67578125 C75.19590587 20.7475176 74.62753259 18.14453233 74.78515625 13.36328125 C74.82576172 11.76033203 74.82576172 11.76033203 74.8671875 10.125 C74.90199219 9.31675781 74.93679688 8.50851562 74.97265625 7.67578125 C74.31265625 7.67578125 73.65265625 7.67578125 72.97265625 7.67578125 C72.70582031 8.37445312 72.43898438 9.073125 72.1640625 9.79296875 C70.88752132 12.88177987 69.42850419 15.82377472 67.91015625 18.80078125 C66.39982542 21.76235906 65.02416811 24.52124567 63.97265625 27.67578125 C62.32265625 27.67578125 60.67265625 27.67578125 58.97265625 27.67578125 C58.97265625 24.70578125 58.97265625 21.73578125 58.97265625 18.67578125 C57.73515625 19.63484375 57.73515625 19.63484375 56.47265625 20.61328125 C52.68798125 23.14540905 49.49595538 23.52500461 44.97265625 23.67578125 C44.31265625 23.01578125 43.65265625 22.35578125 42.97265625 21.67578125 C42.97265625 20.68578125 42.97265625 19.69578125 42.97265625 18.67578125 C37.6178993 22.1735441 34.61977025 25.26706853 33.22265625 31.61328125 C32.78954118 33.96447736 32.37387564 36.31893276 31.97265625 38.67578125 C30.20701532 47.38864251 27.99248547 55.36823812 24.03515625 63.36328125 C23.71135986 64.02239502 23.38756348 64.68150879 23.05395508 65.3605957 C20.91314439 69.47271631 18.57247826 72.65602534 14.97265625 75.67578125 C11.34765625 76.17578125 11.34765625 76.17578125 7.97265625 75.67578125 C5.13367484 73.46694758 4.98314702 72.73767678 4.34765625 68.98828125 C4.82445394 55.09303418 15.07919615 41.56924135 24.41015625 32.23828125 C28.13714374 28.29139586 29.61872317 25.96568 29.59765625 20.48828125 C29.44003963 18.87834011 29.25008446 17.26945219 28.97265625 15.67578125 C23.5955502 20.84487694 23.5955502 20.84487694 18.97265625 26.67578125 C15.09765625 25.80078125 15.09765625 25.80078125 13.97265625 24.67578125 C13.93184842 22.67619761 13.93011269 20.67532871 13.97265625 18.67578125 C13.31265625 18.67578125 12.65265625 18.67578125 11.97265625 18.67578125 C11.72515625 19.29453125 11.47765625 19.91328125 11.22265625 20.55078125 C9.71442881 23.11476789 8.79629567 23.78835172 5.97265625 24.67578125 C2.62288562 24.35675548 1.38085986 24.08398486 -1.02734375 21.67578125 C-1.02734375 20.68578125 -1.02734375 19.69578125 -1.02734375 18.67578125 C-1.68734375 18.67578125 -2.34734375 18.67578125 -3.02734375 18.67578125 C-3.31609375 19.29453125 -3.60484375 19.91328125 -3.90234375 20.55078125 C-5.02734375 22.67578125 -5.02734375 22.67578125 -7.02734375 24.67578125 C-10.32449168 24.34606646 -11.65002765 24.05309735 -14.02734375 21.67578125 C-14.98211095 15.12880618 -12.67442061 10.08257269 -9.02734375 4.67578125 C-3.84141396 -0.61433017 -3.84141396 -0.61433017 0 0 Z " fill="#F2F2F2" transform="translate(830.02734375,652.32421875)"/>
<path d="M0 0 C-1.57851654 1.05234436 -3.16520561 2.09619115 -4.8046875 3.05078125 C-28.44342596 17.45703129 -50.67779009 50.43906567 -57.52587891 77.04296875 C-58.51402983 81.3357075 -59.30538579 85.6495215 -60 90 C-44.86292988 83.15611192 -31.7840835 74.32731766 -20.11328125 62.44921875 C-18 61 -18 61 -15.23046875 61.26953125 C-14.49441406 61.51058594 -13.75835938 61.75164063 -13 62 C-14.39435278 64.98873752 -16.02798883 67.5287146 -18.01171875 70.16015625 C-18.89645874 71.34266968 -18.89645874 71.34266968 -19.79907227 72.54907227 C-20.42225342 73.37850342 -21.04543457 74.20793457 -21.6875 75.0625 C-35.23222891 92.00293245 -35.23222891 92.00293245 -42 112 C-30.94335374 106.71203874 -23.4332057 96.4271726 -16 87 C-15.11976671 85.93253934 -14.23821504 84.8661647 -13.35546875 83.80078125 C-12.46533544 82.70117635 -11.57599677 81.60092767 -10.6875 80.5 C-9.48673828 79.03046875 -9.48673828 79.03046875 -8.26171875 77.53125 C-1.68714538 68.16283045 -0.04640561 55.56713043 2.5 44.59570312 C2.99052642 42.49372075 3.49452632 40.39530534 4 38.296875 C4.28875 37.06291992 4.5775 35.82896484 4.875 34.55761719 C6.13481807 30.57366127 7.81515817 27.54695415 10 24 C10.66 24 11.32 24 12 24 C11.36250463 31.30874977 9.4195685 38.07837253 7.4375 45.125 C2.42980645 63.22746441 -1.28880651 81.59617956 -5 100 C0.02503894 95.86465025 4.14253344 91.92436578 7.75 86.5 C8.12632568 85.93901611 8.50265137 85.37803223 8.89038086 84.80004883 C11.442877 80.96046776 13.82604107 77.064358 16 73 C17.65 73 19.3 73 21 73 C20.525625 74.155 20.05125 75.31 19.5625 76.5 C17.97791232 80.68570332 17.39710805 84.55238986 17 89 C30.1870305 79.03958335 35.6695213 65.70757686 39 50 C37.74316406 50.24556641 37.74316406 50.24556641 36.4609375 50.49609375 C32.79482693 51.02987283 29.32760615 51.09743025 25.625 51.0625 C24.37976563 51.05347656 23.13453125 51.04445313 21.8515625 51.03515625 C20.44003906 51.01775391 20.44003906 51.01775391 19 51 C19 50.01 19 49.02 19 48 C23.4378561 46.88834768 27.76956386 46.88472237 32.3125 46.9375 C33.05306641 46.94201172 33.79363281 46.94652344 34.55664062 46.95117188 C36.37112899 46.96287825 38.18557534 46.98081102 40 47 C40.25394531 45.85660156 40.50789062 44.71320312 40.76953125 43.53515625 C41.11650391 42.04411159 41.46419753 40.55323458 41.8125 39.0625 C41.97814453 38.30775391 42.14378906 37.55300781 42.31445312 36.77539062 C42.77816623 34.82429587 43.3807544 32.90744213 44 31 C44.99 30.67 45.98 30.34 47 30 C46.88265487 31.33402882 46.75557824 32.6672014 46.625 34 C46.55539062 34.7425 46.48578125 35.485 46.4140625 36.25 C45.86725327 39.88163867 44.89073003 43.43707988 44 47 C51.26 47 58.52 47 66 47 C66 47.33 66 47.66 66 48 C58.41 48.66 50.82 49.32 43 50 C41.89493966 54.78259836 40.79148763 59.56551429 39.69189453 64.34936523 C39.31844951 65.97196938 38.94412241 67.59437079 38.56884766 69.21655273 C36.51156567 78.11224006 34.4918819 86.98768839 33 96 C40.07518488 87.59394767 40.07518488 87.59394767 45.25 78 C46.98988567 73.57268529 48.91893053 71.49861396 53 69 C55.875 69.1875 55.875 69.1875 58 70 C58.6640625 71.76953125 58.6640625 71.76953125 59 74 C56.91470775 77.78645171 54.23756569 80.59644597 50.125 81.9375 C49.42375 81.958125 48.7225 81.97875 48 82 C48 83.65 48 85.3 48 87 C56.43164966 82.65937847 56.43164966 82.65937847 64 77 C64.66 77.33 65.32 77.66 66 78 C62.17818018 82.98376504 58.77996633 86.41965789 53 89 C48.80523694 89.48401112 47.55657038 89.37104692 44 87 C43.32453125 87.91523437 42.6490625 88.83046875 41.953125 89.7734375 C41.05249995 90.97427091 40.15143513 92.17477458 39.25 93.375 C38.8065625 93.97828125 38.363125 94.5815625 37.90625 95.203125 C35.57320568 98.29097778 33.72199439 100.69556271 30 102 C28.53578374 99.65914941 27.96061155 98.40449861 28.23193359 95.61816406 C28.45187988 94.75932617 28.67182617 93.90048828 28.8984375 93.015625 C29.13046875 92.08105469 29.3625 91.14648438 29.6015625 90.18359375 C29.85679687 89.21550781 30.11203125 88.24742187 30.375 87.25 C30.74625 85.77466797 30.74625 85.77466797 31.125 84.26953125 C31.73755161 81.84288447 32.3629123 79.42029933 33 77 C30.12666458 80.5874439 30.12666458 80.5874439 27.2890625 84.203125 C22.75486275 89.78040356 22.75486275 89.78040356 18.5625 91 C17.716875 91 16.87125 91 16 91 C14.68 89.35 13.36 87.7 12 86 C11.5153125 86.64066406 11.030625 87.28132812 10.53125 87.94140625 C1.00658405 100.23188866 1.00658405 100.23188866 -4 103 C-6.73828125 102.67578125 -6.73828125 102.67578125 -9 102 C-9.25515919 94.47280398 -8.28297723 87.41148455 -7 80 C-7.40089844 80.66644531 -7.80179688 81.33289063 -8.21484375 82.01953125 C-15.92691714 94.523233 -25.64509506 108.06615119 -39 115 C-41.6875 114.9375 -41.6875 114.9375 -44 114 C-46.1774567 111.52561739 -46 109.79808634 -46 106.5 C-44.00161023 94.4430484 -35.23085404 84.41812305 -28 75 C-28.99 75.66 -29.98 76.32 -31 77 C-34.4039607 79.16619183 -37.82723193 81.30118842 -41.25 83.4375 C-42.64412109 84.31631836 -42.64412109 84.31631836 -44.06640625 85.21289062 C-48.91513133 88.23391382 -53.59441419 91.10591678 -59 93 C-61.256211 92.28751232 -62.35658562 91.64341438 -64 90 C-66.28899189 67.87307843 -47.78559626 41.76521893 -35 25 C-31.55407995 20.77772642 -27.82563693 16.8807261 -24 13 C-23.41089844 12.32710937 -22.82179688 11.65421875 -22.21484375 10.9609375 C-17.63942414 5.85715248 -7.13709475 -3.05627415 0 0 Z " fill="#F4F5F5" transform="translate(620,587)"/>
<path d="M0 0 C4.46320086 5.6985511 5.12188772 12.51841587 5.14526367 19.52758789 C5.15164352 20.82986832 5.15802338 22.13214874 5.16459656 23.47389221 C5.16612627 24.89014651 5.16723968 26.30640131 5.16796875 27.72265625 C5.17118651 29.18891939 5.17455097 30.65518222 5.17805481 32.1214447 C5.18403608 35.19547264 5.18589594 38.26947252 5.18530273 41.34350586 C5.18520163 45.25119247 5.1988045 49.15869527 5.21607494 53.06633854 C5.22728994 56.09755755 5.22921899 59.12873362 5.22869301 62.15997124 C5.22986077 63.59863348 5.23421352 65.03729729 5.24202538 66.4759388 C5.35973345 90.4093504 5.35973345 90.4093504 -1 98 C-1.495 98.495 -1.495 98.495 -2 99 C-5.375 98.875 -5.375 98.875 -9 98 C-10.875 95.5625 -10.875 95.5625 -12 93 C-12.33 92.34 -12.66 91.68 -13 91 C-14.15884618 83.18739835 -14.161299 75.42941708 -14.16796875 67.54296875 C-14.17119099 66.1496833 -14.17455575 64.75639818 -14.17805481 63.3631134 C-14.18401099 60.45422584 -14.18589834 57.54536783 -14.18530273 54.63647461 C-14.18520129 50.94188972 -14.19885073 47.24749778 -14.21607494 43.55295849 C-14.22729081 40.67787333 -14.22921903 37.80283343 -14.22869301 34.92772865 C-14.23041861 32.913978 -14.24119544 30.90024147 -14.25224304 28.88652039 C-14.20093588 8.01810948 -14.20093588 8.01810948 -9 0 C-5.65990607 -1.67004696 -3.51628157 -1.03063425 0 0 Z " fill="#101112" transform="translate(1012,398)"/>
<path d="M0 0 C0.66 0.33 1.32 0.66 2 1 C-0.01558914 12.2872992 -2.78742953 23.35369434 -5.66235352 34.45019531 C-6.11372681 36.21314941 -6.11372681 36.21314941 -6.57421875 38.01171875 C-6.84838623 39.06834717 -7.12255371 40.12497559 -7.4050293 41.21362305 C-8.13921397 44.17710417 -8.13921397 44.17710417 -8 48 C-7.45730469 47.37351562 -6.91460938 46.74703125 -6.35546875 46.1015625 C-5.64003906 45.28429687 -4.92460938 44.46703125 -4.1875 43.625 C-3.12595703 42.40683594 -3.12595703 42.40683594 -2.04296875 41.1640625 C0.36799533 38.61019233 2.00131559 37.09743263 5.5625 36.75 C8 37 8 37 10 39 C9.9765625 41.1640625 9.9765625 41.1640625 9.625 43.625 C9.51414062 44.44226563 9.40328125 45.25953125 9.2890625 46.1015625 C9.19367187 46.72804688 9.09828125 47.35453125 9 48 C10.65 48 12.3 48 14 48 C14 48.66 14 49.32 14 50 C13.01 50.268125 12.02 50.53625 11 50.8125 C6.07823141 52.8690605 3.76972376 57.00458866 0.89453125 61.30859375 C-0.90294045 63.8621154 -2.63718485 65.9617736 -5 68 C-7.75 68.25 -7.75 68.25 -10 68 C-10.33 67.01 -10.66 66.02 -11 65 C-8.27455312 60.10239244 -4.17513599 55.71123199 0 52 C0.66 52 1.32 52 2 52 C2.20496094 51.22914063 2.40992188 50.45828125 2.62109375 49.6640625 C2.89050781 48.66117188 3.15992188 47.65828125 3.4375 46.625 C3.70433594 45.62726562 3.97117187 44.62953125 4.24609375 43.6015625 C5 41 5 41 6 39 C-9.40473955 49.32195746 -12.75262685 63.88865655 -17 81 C-18.32 81 -19.64 81 -21 81 C-19.63948216 72.26067362 -17.91580102 63.63387662 -16 55 C-16.99 55.804375 -17.98 56.60875 -19 57.4375 C-22.99119164 60.32682892 -26.13291572 60.74383767 -31 61 C-33.38969738 58.5107319 -33.98717462 57.09893865 -34.4375 53.625 C-33.82128574 48.51922467 -31.70625069 45.65121034 -28.0625 42.125 C-25.52703104 40.74201693 -23.8475491 40.69215685 -21 41 C-20 42 -20 42 -19.9375 45.25 C-21.12139117 49.42843942 -21.46494742 49.65753242 -25 51.6875 C-25.721875 52.04199219 -26.44375 52.39648438 -27.1875 52.76171875 C-29.19187575 53.86825863 -29.19187575 53.86825863 -29.75 56.14453125 C-29.8325 56.75683594 -29.915 57.36914062 -30 58 C-27.60149287 57.0814228 -25.31923507 56.09556348 -23 55 C-22.26217285 54.67177246 -21.5243457 54.34354492 -20.76416016 54.00537109 C-16.82953839 51.88647019 -14.50080732 50.17194046 -12.71362305 45.98974609 C-11.91507388 42.92326602 -11.23084931 39.86927788 -10.67144775 36.75033569 C-10.06527596 33.3722756 -9.34139221 30.01877585 -8.63671875 26.66015625 C-8.50172974 25.99893265 -8.36674072 25.33770905 -8.22766113 24.65644836 C-7.06261418 19.02861462 -5.50322413 13.61436644 -3.625 8.1875 C-3.37403564 7.4543457 -3.12307129 6.72119141 -2.86450195 5.96582031 C-1.17389158 1.17389158 -1.17389158 1.17389158 0 0 Z " fill="#F2F2F3" transform="translate(777,615)"/>
<path d="M0 0 C0.66 0 1.32 0 2 0 C1.88265487 1.33402882 1.75557824 2.6672014 1.625 4 C1.55539062 4.7425 1.48578125 5.485 1.4140625 6.25 C0.86725327 9.88163867 -0.10926997 13.43707988 -1 17 C6.26 17 13.52 17 21 17 C21 17.33 21 17.66 21 18 C9.615 18.99 9.615 18.99 -2 20 C-3.10506034 24.78259836 -4.20851237 29.56551429 -5.30810547 34.34936523 C-5.68155049 35.97196938 -6.05587759 37.59437079 -6.43115234 39.21655273 C-8.48843433 48.11224006 -10.5081181 56.98768839 -12 66 C-4.92481512 57.59394767 -4.92481512 57.59394767 0.25 48 C1.98988567 43.57268529 3.91893053 41.49861396 8 39 C10.875 39.1875 10.875 39.1875 13 40 C13.6640625 41.76953125 13.6640625 41.76953125 14 44 C11.91470775 47.78645171 9.23756569 50.59644597 5.125 51.9375 C4.42375 51.958125 3.7225 51.97875 3 52 C3 53.65 3 55.3 3 57 C11.43164966 52.65937847 11.43164966 52.65937847 19 47 C19.99 47.495 19.99 47.495 21 48 C17.17818018 52.98376504 13.77996633 56.41965789 8 59 C3.80523694 59.48401112 2.55657038 59.37104692 -1 57 C-1.67546875 57.91523437 -2.3509375 58.83046875 -3.046875 59.7734375 C-3.94750005 60.97427091 -4.84856487 62.17477458 -5.75 63.375 C-6.1934375 63.97828125 -6.636875 64.5815625 -7.09375 65.203125 C-9.42679432 68.29097778 -11.27800561 70.69556271 -15 72 C-16.46421626 69.65914941 -17.03938845 68.40449861 -16.76806641 65.61816406 C-16.54812012 64.75932617 -16.32817383 63.90048828 -16.1015625 63.015625 C-15.86953125 62.08105469 -15.6375 61.14648438 -15.3984375 60.18359375 C-15.01558594 58.73146484 -15.01558594 58.73146484 -14.625 57.25 C-14.3775 56.26644531 -14.13 55.28289063 -13.875 54.26953125 C-13.26244839 51.84288447 -12.6370877 49.42029933 -12 47 C-14.87333542 50.5874439 -14.87333542 50.5874439 -17.7109375 54.203125 C-22.24513725 59.78040356 -22.24513725 59.78040356 -26.4375 61 C-27.283125 61 -28.12875 61 -29 61 C-30.32 59.35 -31.64 57.7 -33 56 C-34.98 58.64 -36.96 61.28 -39 64 C-39.66 63.34 -40.32 62.68 -41 62 C-40.38511719 61.04738281 -39.77023437 60.09476563 -39.13671875 59.11328125 C-38.32027161 57.84638052 -37.50386765 56.57945196 -36.6875 55.3125 C-36.28337891 54.68666016 -35.87925781 54.06082031 -35.46289062 53.41601562 C-35.06650391 52.80048828 -34.67011719 52.18496094 -34.26171875 51.55078125 C-33.87201904 50.94790283 -33.48231934 50.34502441 -33.08081055 49.72387695 C-32.12646612 48.2017116 -31.24466321 46.6345835 -30.375 45.0625 C-29.92125 44.381875 -29.4675 43.70125 -29 43 C-26.3125 42.6875 -26.3125 42.6875 -24 43 C-24.474375 44.155 -24.94875 45.31 -25.4375 46.5 C-27.02208768 50.68570332 -27.60289195 54.55238986 -28 59 C-14.8129695 49.03958335 -9.3304787 35.70757686 -6 20 C-7.25683594 20.24556641 -7.25683594 20.24556641 -8.5390625 20.49609375 C-12.20517307 21.02987283 -15.67239385 21.09743025 -19.375 21.0625 C-21.24285156 21.04896484 -21.24285156 21.04896484 -23.1484375 21.03515625 C-24.55996094 21.01775391 -24.55996094 21.01775391 -26 21 C-26 20.01 -26 19.02 -26 18 C-21.5621439 16.88834768 -17.23043614 16.88472237 -12.6875 16.9375 C-11.94693359 16.94201172 -11.20636719 16.94652344 -10.44335938 16.95117188 C-8.62887101 16.96287825 -6.81442466 16.98081102 -5 17 C-4.72285156 15.85660156 -4.44570313 14.71320312 -4.16015625 13.53515625 C-3.79445622 12.04422535 -3.42856071 10.55334239 -3.0625 9.0625 C-2.88009766 8.30775391 -2.69769531 7.55300781 -2.50976562 6.77539062 C-1.11328125 1.11328125 -1.11328125 1.11328125 0 0 Z " fill="#F1F2F2" transform="translate(665,617)"/>
<path d="M0 0 C57.75 0 115.5 0 175 0 C175 19.8 175 39.6 175 60 C174.67 60 174.34 60 174 60 C174 40.86 174 21.72 174 2 C136.38 2 98.76 2 60 2 C60 63.71 60 125.42 60 189 C59.34 189.33 58.68 189.66 58 190 C57.505 102.88 57.505 102.88 57 14 C56.34 14.66 55.68 15.32 55 16 C55.59343896 10.30298599 56.89064603 6.62494392 59 1 C39.53 1 20.06 1 0 1 C0 0.67 0 0.34 0 0 Z " fill="#0B0C0D" transform="translate(338,351)"/>
<path d="M0 0 C0.66 0 1.32 0 2 0 C2.06993164 0.58450928 2.13986328 1.16901855 2.21191406 1.77124023 C2.42910895 3.58579529 2.64649728 5.4003272 2.86401367 7.21484375 C3.12522765 9.39575742 3.38578848 11.57674941 3.64575195 13.7578125 C4.35185851 19.66566636 5.06827569 25.57178667 5.81118774 31.47511292 C6.18194226 34.42391263 6.54862665 37.37321343 6.91516113 40.32254028 C7.09523485 41.76230269 7.27724989 43.20182375 7.46130371 44.64108276 C8.41694905 52.12019288 9.24228798 59.4472987 9 67 C3.39 67 -2.22 67 -8 67 C-7.34873142 60.67206573 -6.69126252 54.34481394 -6.02856445 48.01806641 C-5.80494264 45.87533086 -5.58288209 43.73243167 -5.36254883 41.58935547 C-3.929285 27.66155705 -2.21601408 13.82577056 0 0 Z " fill="#121314" transform="translate(1287,410)"/>
<path d="M0 0 C8 0 8 0 9.9375 1.375 C12.54554638 5.36377682 12.16192784 9.17920555 12.16796875 13.8046875 C12.17129715 14.68021271 12.17462555 15.55573792 12.17805481 16.45779419 C12.1831227 18.31218947 12.18546318 20.16659389 12.18530273 22.02099609 C12.18748583 24.8565987 12.20563353 27.6918102 12.22460938 30.52734375 C12.227544 32.32812367 12.22952833 34.12890544 12.23046875 35.9296875 C12.23765427 36.77771942 12.24483978 37.62575134 12.25224304 38.4994812 C12.24916641 39.29355377 12.24608978 40.08762634 12.24291992 40.90576172 C12.24434494 41.60144257 12.24576996 42.29712341 12.24723816 43.0138855 C11.94935311 45.40685676 11.29715175 46.97019725 10 49 C6.38181456 50.57312411 3.97906647 51 0 51 C0 34.17 0 17.34 0 0 Z " fill="#111314" transform="translate(702,405)"/>
<path d="M0 0 C1.32 0.33 2.64 0.66 4 1 C3.67 3.31 3.34 5.62 3 8 C4.65 6.35 6.3 4.7 8 3 C9.9375 3.5625 9.9375 3.5625 12 5 C13.19402958 9.97512324 13.08921917 14.91450754 13 20 C17.34878185 16.6274753 20.54422415 13.4521527 23.625 8.875 C28.16251249 2.16473655 28.16251249 2.16473655 32 0 C35.1875 -0.375 35.1875 -0.375 38 0 C38.66 0.66 39.32 1.32 40 2 C39.625 4.125 39.625 4.125 39 6 C38.34 5.01 37.68 4.02 37 3 C33.90678308 3.22094407 32.94240213 4.05919781 30.75 6.3125 C27.80737569 10.99081286 28.69125941 16.69995317 29 22 C33.75272117 21.2263012 36.07183939 19.77642997 39 16 C41.43110394 12.39140939 43.74050761 8.7180696 46 5 C46.495 5.99 46.495 5.99 47 7 C44.05237694 14.65024537 40.81423559 22.51150197 33 26 C29.3125 26.375 29.3125 26.375 26 25 C24.18871888 22.14989589 23.04183838 19.20316769 22 16 C21.443125 16.804375 20.88625 17.60875 20.3125 18.4375 C17.78135513 21.24228216 16.67420866 21.69381595 13 22 C10.22324962 18.07173635 9.65487634 15.46875108 9.8125 10.6875 C9.83957031 9.61886719 9.86664062 8.55023437 9.89453125 7.44921875 C9.92933594 6.64097656 9.96414063 5.83273437 10 5 C9.34 5 8.68 5 8 5 C7.73316406 5.69867187 7.46632813 6.39734375 7.19140625 7.1171875 C5.91486507 10.20599862 4.45584794 13.14799347 2.9375 16.125 C1.42716917 19.08657781 0.05151186 21.84546442 -1 25 C-2.65 25 -4.3 25 -6 25 C-6 22.03 -6 19.06 -6 16 C-6.886875 16.639375 -7.77375 17.27875 -8.6875 17.9375 C-11.69211428 19.80829757 -13.5510371 20.59423966 -17 21 C-17 20.01 -17 19.02 -17 18 C-14.55078125 16.5625 -14.55078125 16.5625 -11.3125 15 C-4.56729375 11.29690566 -2.24353629 7.21323005 0 0 Z " fill="#EFEFF0" transform="translate(895,655)"/>
<path d="M0 0 C3.10037395 6.2007479 -2.16733157 19.30741925 -4.13671875 25.67578125 C-6.72852049 32.31458239 -10.31292355 37.65105973 -15 43 C-16.65 42.67 -18.3 42.34 -20 42 C-20.67731088 33.87226947 -18.52258181 28.2688196 -15 21 C-14.55398438 20.05640625 -14.10796875 19.1128125 -13.6484375 18.140625 C-10.09507211 11.11329903 -5.48437779 5.61844036 0 0 Z " fill="#101113" transform="translate(858,683)"/>
<path d="M0 0 C0.99 0 1.98 0 3 0 C2.45420563 3.12420228 1.69641355 6.13902318 0.80859375 9.1796875 C0.58623047 9.94410156 0.36386719 10.70851563 0.13476562 11.49609375 C-0.32828147 13.07590148 -0.7969933 14.6540604 -1.27148438 16.23046875 C-2.64539014 20.99708058 -3.25794195 25.03957789 -3 30 C-2.11248047 28.44539062 -2.11248047 28.44539062 -1.20703125 26.859375 C-0.40937365 25.48928076 0.38883256 24.11950582 1.1875 22.75 C1.57486328 22.06808594 1.96222656 21.38617187 2.36132812 20.68359375 C4.76542529 16.590668 7.01540377 13.746045 11 11 C12.32 11.66 13.64 12.32 15 13 C15 16.96 15 20.92 15 25 C20.1711115 20.45568989 23.44663108 14.84718632 27 9 C27.495 9.99 27.495 9.99 28 11 C25.53356031 17.27736717 22.61376886 24.01126949 17 28 C15.68 27.67 14.36 27.34 13 27 C12.34 22.71 11.68 18.42 11 14 C10.20335937 15.44375 9.40671875 16.8875 8.5859375 18.375 C7.51680412 20.25067259 6.44642672 22.12563647 5.375 24 C4.59189453 25.43085937 4.59189453 25.43085937 3.79296875 26.890625 C2.32075096 29.43519897 0.91763699 31.77067459 -1 34 C-4.3359375 34.6875 -4.3359375 34.6875 -7 34 C-8.5893811 32.4106189 -8.20379669 30.79127628 -8.2421875 28.58984375 C-8.18331218 22.88807379 -6.87027642 17.95662178 -5.125 12.5625 C-4.85558594 11.67884766 -4.58617187 10.79519531 -4.30859375 9.88476562 C-3.1508288 6.17144634 -2.17568893 3.26353339 0 0 Z " fill="#F1F1F1" transform="translate(716,649)"/>
<path d="M0 0 C3.26452461 1.63226231 3.86254692 5.12524039 5.125 8.375 C5.40214844 9.06078125 5.67929687 9.7465625 5.96484375 10.453125 C7.14507433 13.44149209 8 15.75897637 8 19 C13.59967378 14.20497249 13.59967378 14.20497249 18.875 9.0625 C21 7 21 7 23 7 C21.01286647 11.97357699 16.90616922 14.94784407 13.01953125 18.46484375 C10.71325587 20.76981511 10.71325587 20.76981511 11.1796875 23.359375 C11.45039062 24.23078125 11.72109375 25.1021875 12 26 C12.64102599 35.38420013 12.90817963 43.10437595 6.6796875 50.5859375 C3.98027857 53.25584469 1.57661749 54.34920977 -2.125 54.5625 C-6 54 -6 54 -8.5 52.5 C-10.65520818 48.90798636 -10.8823054 45.99794635 -10 42 C-6.57781451 33.81883782 -0.39724625 27.9421062 6 22 C5.21494099 19.87255001 4.4217394 17.74810326 3.625 15.625 C3.18414063 14.44164062 2.74328125 13.25828125 2.2890625 12.0390625 C1.2049658 8.95506554 1.2049658 8.95506554 -1 7 C-0.625 3.375 -0.625 3.375 0 0 Z M2.75 27.9375 C-2.7763401 33.56960737 -7.23289108 38.83519656 -7.375 47 C-7.40010092 49.79936334 -7.40010092 49.79936334 -6 52 C-1.63978085 52.51296696 0.47132569 52.32533804 4.25 50 C8.75293831 45.71378065 10.13845611 40.4562983 10.3125 34.375 C10.18942264 30.63733502 9.42750957 27.47955457 8 24 C5.91834255 24 4.12092994 26.60969533 2.75 27.9375 Z " fill="#F3F3F3" transform="translate(943,652)"/>
<path d="M0 0 C10.79678488 -0.0464473 21.59354578 -0.08193205 32.39041042 -0.10362434 C37.404434 -0.11403828 42.41838895 -0.12815368 47.43237305 -0.15087891 C52.27586093 -0.1726927 57.11928301 -0.18458659 61.96281624 -0.18975449 C63.80587868 -0.19343496 65.64893773 -0.20062183 67.49197197 -0.21146011 C70.08383699 -0.22608864 72.67543398 -0.22797323 75.26733398 -0.22705078 C76.02043854 -0.23424133 76.77354309 -0.24143188 77.54946899 -0.24884033 C82.91272789 -0.22833677 87.81294548 0.65927943 93 2 C93 2.33 93 2.66 93 3 C62.31 3 31.62 3 0 3 C0 2.01 0 1.02 0 0 Z " fill="#18181A" transform="translate(641,350)"/>
<path d="M0 0 C0.66 0 1.32 0 2 0 C2 6.93 2 13.86 2 21 C4.07023438 20.97679687 6.14046875 20.95359375 8.2734375 20.9296875 C10.27571127 20.91578282 12.27798623 20.90194823 14.28027344 20.89013672 C15.67320781 20.88007123 17.06612102 20.86641766 18.45898438 20.84912109 C20.4595436 20.8248978 22.46025615 20.81459186 24.4609375 20.8046875 C26.26763916 20.78897705 26.26763916 20.78897705 28.11083984 20.77294922 C31 21 31 21 33 23 C33.24291992 25.68969727 33.24291992 25.68969727 33.23046875 29.06640625 C33.22853516 30.27361328 33.22660156 31.48082031 33.22460938 32.72460938 C33.20624023 34.62436523 33.20624023 34.62436523 33.1875 36.5625 C33.18685547 37.83287109 33.18621094 39.10324219 33.18554688 40.41210938 C33.14010053 49.85989947 33.14010053 49.85989947 32 51 C29.78144736 51.08783542 27.56011504 51.10694609 25.33984375 51.09765625 C24.34314415 51.09553383 24.34314415 51.09553383 23.3263092 51.09336853 C21.19666101 51.08775518 19.06711661 51.07520054 16.9375 51.0625 C15.49674631 51.05748671 14.05599097 51.05292351 12.61523438 51.04882812 C9.07675042 51.03863076 5.53849187 51.0190583 2 51 C2.33 59.25 2.66 67.5 3 76 C2.01 76 1.02 76 0 76 C0 67.42 0 58.84 0 50 C10.23 50 20.46 50 31 50 C31 41.09 31 32.18 31 23 C20.77 23 10.54 23 0 23 C0 15.41 0 7.82 0 0 Z " fill="#030404" transform="translate(580,410)"/>
<path d="M0 0 C0.66 0 1.32 0 2 0 C2.04629168 7.65807215 2.08185303 15.31612984 2.10362434 22.97430992 C2.11407224 26.53012399 2.12824959 30.0858425 2.15087891 33.64160156 C2.17671832 37.727223 2.18646444 41.81274369 2.1953125 45.8984375 C2.20563507 47.17866791 2.21595764 48.45889832 2.22659302 49.77792358 C2.22681961 51.54953354 2.22681961 51.54953354 2.22705078 53.35693359 C2.231492 54.40062103 2.23593323 55.44430847 2.24050903 56.5196228 C2 59 2 59 0 61 C-2.4803772 61.24050903 -2.4803772 61.24050903 -5.64306641 61.22705078 C-6.82413971 61.22689972 -8.00521301 61.22674866 -9.22207642 61.22659302 C-10.50230682 61.21627045 -11.78253723 61.20594788 -13.1015625 61.1953125 C-15.06166763 61.19106766 -15.06166763 61.19106766 -17.06137085 61.18673706 C-20.53682081 61.17909776 -24.01210383 61.1594469 -27.48748779 61.1373291 C-31.03330222 61.11687696 -34.5791436 61.10773671 -38.125 61.09765625 C-45.08340195 61.07620116 -52.04169296 61.04206173 -59 61 C-59 60.67 -59 60.34 -59 60 C-39.86 60 -20.72 60 -1 60 C-1.01160156 55.75253906 -1.02320313 51.50507812 -1.03515625 47.12890625 C-1.04158318 43.75092854 -1.04700741 40.37295256 -1.05175018 36.99497223 C-1.0570399 33.42428875 -1.06411339 29.85362885 -1.07543945 26.28295898 C-1.08834176 22.18993903 -1.09322906 18.0969442 -1.09765625 14.00390625 C-1.10281754 12.71851456 -1.10797882 11.43312286 -1.11329651 10.10877991 C-1.11337204 8.92763107 -1.11344757 7.74648224 -1.11352539 6.52954102 C-1.115746 5.48363297 -1.11796661 4.43772491 -1.12025452 3.36012268 C-1 1 -1 1 0 0 Z " fill="#1F2021" transform="translate(355,482)"/>
<path d="M0 0 C1.21844052 4.91780208 0.73966693 7.55685211 -1.375 12.125 C-2.8786589 15.42632933 -4.16422965 18.47557222 -5 22 C-6.25 23.8125 -6.25 23.8125 -8 25 C-11.34192692 24.75546876 -12.60543557 24.39456443 -15 22 C-15.95370869 15.46028325 -13.65513442 10.39610867 -10 5 C-6.98419589 2.0435881 -4.3699589 0 0 0 Z " fill="#EEEEEE" transform="translate(831,652)"/>
<path d="M0 0 C2.375 -0.125 2.375 -0.125 5 0 C5.66 0.66 6.32 1.32 7 2 C6.9765625 4.1640625 6.9765625 4.1640625 6.625 6.625 C6.45871094 7.85089844 6.45871094 7.85089844 6.2890625 9.1015625 C6.14597656 10.04128906 6.14597656 10.04128906 6 11 C7.65 11 9.3 11 11 11 C11 11.66 11 12.32 11 13 C9.515 13.4021875 9.515 13.4021875 8 13.8125 C3.07823141 15.8690605 0.76972376 20.00458866 -2.10546875 24.30859375 C-3.90294045 26.8621154 -5.63718485 28.9617736 -8 31 C-10.75 31.25 -10.75 31.25 -13 31 C-13.33 30.01 -13.66 29.02 -14 28 C-11.27455312 23.10239244 -7.17513599 18.71123199 -3 15 C-2.34 15 -1.68 15 -1 15 C-0.79503906 14.22914063 -0.59007812 13.45828125 -0.37890625 12.6640625 C-0.10949219 11.66117188 0.15992188 10.65828125 0.4375 9.625 C0.70433594 8.62726562 0.97117187 7.62953125 1.24609375 6.6015625 C2 4 2 4 3 2 C1.68 2.33 0.36 2.66 -1 3 C-0.67 2.01 -0.34 1.02 0 0 Z " fill="#EEEEEF" transform="translate(780,652)"/>
<path d="M0 0 C0.70125 0.268125 1.4025 0.53625 2.125 0.8125 C2.7890625 2.58203125 2.7890625 2.58203125 3.125 4.8125 C1.03970775 8.59895171 -1.63743431 11.40894597 -5.75 12.75 C-6.45125 12.770625 -7.1525 12.79125 -7.875 12.8125 C-7.875 14.4625 -7.875 16.1125 -7.875 17.8125 C0.55664966 13.47187847 0.55664966 13.47187847 8.125 7.8125 C8.785 8.1425 9.445 8.4725 10.125 8.8125 C6.30318018 13.79626504 2.90496633 17.23215789 -2.875 19.8125 C-6.95250056 20.29220595 -9.34582246 19.82917288 -12.875 17.8125 C-13.535 17.8125 -14.195 17.8125 -14.875 17.8125 C-14.58109375 17.24402344 -14.2871875 16.67554688 -13.984375 16.08984375 C-12.85833793 13.8537629 -12.85833793 13.8537629 -12.015625 11.62890625 C-9.79405185 6.00676718 -7.00925596 -0.45712539 0 0 Z " fill="#F3F3F3" transform="translate(675.875,656.1875)"/>
<path d="M0 0 C0.99 0 1.98 0 3 0 C3 8.25 3 16.5 3 25 C13.23 25 23.46 25 34 25 C34 25.66 34 26.32 34 27 C34.66 27 35.32 27 36 27 C36 35.91 36 44.82 36 54 C35.01 54 34.02 54 33 54 C33 45.42 33 36.84 33 28 C22.11 28 11.22 28 0 28 C0 18.76 0 9.52 0 0 Z " fill="#19191B" transform="translate(457,409)"/>
<path d="M0 0 C1.32 0.33 2.64 0.66 4 1 C3.34 3.97 2.68 6.94 2 10 C2.99 9.67 3.98 9.34 5 9 C4.23757784 12.61055091 2.87526626 15.85834625 1.4375 19.25 C0.98246094 20.32765625 0.52742187 21.4053125 0.05859375 22.515625 C-0.29074219 23.33546875 -0.64007812 24.1553125 -1 25 C-2.65 25 -4.3 25 -6 25 C-6 22.03 -6 19.06 -6 16 C-6.886875 16.639375 -7.77375 17.27875 -8.6875 17.9375 C-11.69211428 19.80829757 -13.5510371 20.59423966 -17 21 C-17 20.01 -17 19.02 -17 18 C-14.55078125 16.5625 -14.55078125 16.5625 -11.3125 15 C-4.56729375 11.29690566 -2.24353629 7.21323005 0 0 Z " fill="#F4F5F5" transform="translate(895,655)"/>
<path d="M0 0 C0.66 0 1.32 0 2 0 C1.34972605 7.94553478 -0.88666999 15.47107 -3 23.125 C-3.55585822 25.14880729 -4.11006404 27.17302836 -4.66088867 29.19821167 C-5.15963028 31.03042809 -5.66364433 32.86120694 -6.16796875 34.69189453 C-6.94620757 37.78612459 -7.52561484 40.84641685 -8 44 C-8.99 44 -9.98 44 -11 44 C-11.99 44.495 -11.99 44.495 -13 45 C-11.46570118 36.87385534 -9.5934905 28.84343213 -7.625 20.8125 C-7.33367188 19.58080078 -7.04234375 18.34910156 -6.7421875 17.08007812 C-5.19074888 10.76885302 -3.6400502 5.4119689 0 0 Z " fill="#F0F0F0" transform="translate(630,611)"/>
<path d="M0 0 C1.32 0 2.64 0 4 0 C3.6833023 12.75428027 -1.56806185 25.61992754 -9.9609375 35.25 C-12 37 -12 37 -15.5625 37.4375 C-19 37 -19 37 -20.9375 35.8125 C-22.32851983 33.43958382 -22.21917317 31.70313576 -22 29 C-21.34 28.67 -20.68 28.34 -20 28 C-19.34 29.98 -18.68 31.96 -18 34 C-14.83902349 33.70230529 -13.37736968 33.39735748 -11.15625 31.05859375 C-5.12788293 21.5184185 -1.62742603 11.16691264 0 0 Z " fill="#F2F2F2" transform="translate(857,691)"/>
<path d="M0 0 C0.99 0.33 1.98 0.66 3 1 C2.401875 1.55816406 1.80375 2.11632812 1.1875 2.69140625 C-1.00068112 5.00071883 -2.41371025 7.19040967 -4 9.9375 C-10.46295448 20.26717938 -19.94102868 31.43413615 -31 37 C-33.3125 36.6953125 -33.3125 36.6953125 -35 36 C-34.1646875 35.6596875 -34.1646875 35.6596875 -33.3125 35.3125 C-30.99858281 33.99919565 -29.36298834 32.51492354 -27.53515625 30.59765625 C-26.37923367 29.39467321 -25.19431903 28.21944748 -23.99609375 27.05859375 C-16.23869463 19.51705269 -9.4874805 11.2503289 -3.19140625 2.4609375 C-2 1 -2 1 0 0 Z " fill="#EEEEEE" transform="translate(612,665)"/>
<path d="M0 0 C1 1 1 1 1.0625 4.25 C-0.12139117 8.42843942 -0.46494742 8.65753242 -4 10.6875 C-4.721875 11.04199219 -5.44375 11.39648438 -6.1875 11.76171875 C-8.19187575 12.86825863 -8.19187575 12.86825863 -8.75 15.14453125 C-8.8325 15.75683594 -8.915 16.36914062 -9 17 C-7.68 17.66 -6.36 18.32 -5 19 C-5 19.33 -5 19.66 -5 20 C-7.3125 20.25 -7.3125 20.25 -10 20 C-12.68579303 17.68466118 -12.9805093 16.15035683 -13.4375 12.625 C-12.82128574 7.51922467 -10.70625069 4.65121034 -7.0625 1.125 C-4.52703104 -0.25798307 -2.8475491 -0.30784315 0 0 Z " fill="#F1F1F1" transform="translate(756,656)"/>
<path d="M0 0 C0.99 0.33 1.98 0.66 3 1 C2.40832031 1.54527344 1.81664062 2.09054687 1.20703125 2.65234375 C-7.37639874 10.75288606 -7.37639874 10.75288606 -11.296875 21.56640625 C-11.34953508 24.30608095 -11.34953508 24.30608095 -11 28 C-7.14175139 28.30260773 -4.68787455 28.3752043 -1.25 26.5 C1.72585575 23.19349361 2.66080826 20.22902655 4 16 C4.99 16 5.98 16 7 16 C5.61752142 21.92490821 3.90348715 26.21151613 -1.03125 29.96484375 C-4.62594849 31.85491339 -6.99346597 31.65680886 -11 31 C-13.5 29.5 -13.5 29.5 -15 27 C-16.09465869 20.65097959 -14.37993889 16.87364648 -10.93359375 11.54296875 C-7.6942454 7.28273486 -3.93168352 3.61714884 0 0 Z " fill="#ECECEC" transform="translate(948,675)"/>
<path d="M0 0 C1.32 0.33 2.64 0.66 4 1 C5.065925 5.5834775 4.78483017 7.73623903 3 12 C2.5342111 14.99725031 2.27080729 17.9759853 2 21 C4.97 19.68 7.94 18.36 11 17 C10 21 10 21 7.75 22.8125 C4.56129013 24.1894429 3.23889147 24.1379889 0 23 C-0.66 22.34 -1.32 21.68 -2 21 C-2 20.01 -2 19.02 -2 18 C-2.99 17.67 -3.98 17.34 -5 17 C-4.45859375 15.78763672 -4.45859375 15.78763672 -3.90625 14.55078125 C-3.4421875 13.48214844 -2.978125 12.41351562 -2.5 11.3125 C-2.0359375 10.25675781 -1.571875 9.20101562 -1.09375 8.11328125 C-0.05049199 5.14372184 0.23065301 3.10804937 0 0 Z " fill="#F3F3F3" transform="translate(831,653)"/>
<path d="M0 0 C2.5 0.125 2.5 0.125 5 1 C6.15625 3.0546875 6.15625 3.0546875 7 5 C2.67106815 10.18419194 -1.76564995 14.72706118 -7 19 C-7.72641371 12.31699385 -5.42741688 7.68120313 -2 2 C-1.34 1.34 -0.68 0.68 0 0 Z " fill="#0E0E10" transform="translate(855,655)"/>
<path d="M0 0 C1.98 0 3.96 0 6 0 C4.68 0.33 3.36 0.66 2 1 C2 16.84 2 32.68 2 49 C5.465 48.505 5.465 48.505 9 48 C9.33 46.35 9.66 44.7 10 43 C10.6875 44.8125 10.6875 44.8125 11 47 C10.0625 48.6875 10.0625 48.6875 8 50 C5.36 50.33 2.72 50.66 0 51 C0 34.17 0 17.34 0 0 Z " fill="#323233" transform="translate(702,405)"/>
<path d="M0 0 C-1.12457584 6.90810875 -4.28695118 14.66596297 -10 19 C-10.66 19 -11.32 19 -12 19 C-12.89158077 13.35332181 -10.5290738 9.91521981 -7.703125 5.26953125 C-5.61251011 2.48364306 -3.65516306 0 0 0 Z " fill="#101010" transform="translate(832,655)"/>
<path d="M0 0 C1.9375 0.5625 1.9375 0.5625 4 2 C5.19402958 6.97512324 5.08921917 11.91450754 5 17 C5.54269531 16.57847656 6.08539062 16.15695312 6.64453125 15.72265625 C7.35996094 15.17480469 8.07539062 14.62695312 8.8125 14.0625 C9.52019531 13.51722656 10.22789062 12.97195313 10.95703125 12.41015625 C13 11 13 11 16 10 C16 11.65 16 13.3 16 15 C15.34 14.34 14.68 13.68 14 13 C13.443125 13.804375 12.88625 14.60875 12.3125 15.4375 C9.78135513 18.24228216 8.67420866 18.69381595 5 19 C2.22324962 15.07173635 1.65487634 12.46875108 1.8125 7.6875 C1.85310547 6.08455078 1.85310547 6.08455078 1.89453125 4.44921875 C1.94673828 3.23685547 1.94673828 3.23685547 2 2 C1.34 2 0.68 2 0 2 C-0.66 3.65 -1.32 5.3 -2 7 C-2.99 7 -3.98 7 -5 7 C-3.70700306 4.11562221 -2.34058637 2.12780579 0 0 Z " fill="#EEEEEE" transform="translate(903,658)"/>
<path d="M0 0 C0.33 0 0.66 0 1 0 C1.02893932 3.62498334 1.04677792 7.24993713 1.0625 10.875 C1.07087891 11.90753906 1.07925781 12.94007813 1.08789062 14.00390625 C1.09111328 14.99003906 1.09433594 15.97617187 1.09765625 16.9921875 C1.10289307 17.90339355 1.10812988 18.81459961 1.11352539 19.75341797 C1 22 1 22 0 24 C0.66 24 1.32 24 2 24 C2 28.29 2 32.58 2 37 C-2.30630241 31.25826346 -1.77443251 26.01373925 -2 19 C-2.04125 17.72769531 -2.0825 16.45539063 -2.125 15.14453125 C-2.29809597 4.87777681 -2.29809597 4.87777681 0 0 Z " fill="#191A1B" transform="translate(321,364)"/>
<path d="M0 0 C2.55320319 1.2766016 2.58962088 2.09992078 3.5078125 4.74609375 C3.77207031 5.50083984 4.03632812 6.25558594 4.30859375 7.03320312 C4.57800781 7.82662109 4.84742188 8.62003906 5.125 9.4375 C5.40214844 10.22705078 5.67929687 11.01660156 5.96484375 11.83007812 C8 17.70997537 8 17.70997537 8 20 C6.35 20.66 4.7 21.32 3 22 C-1.18515046 17.81484954 -0.05349248 9.48723929 -0.0625 3.8125 C-0.041875 2.554375 -0.02125 1.29625 0 0 Z " fill="#151516" transform="translate(838,460)"/>
<path d="M0 0 C0.33 0.66 0.66 1.32 1 2 C-2.11371882 5.38060901 -4.54087397 7.70920036 -9 9 C-9.99 9 -10.98 9 -12 9 C-12 4.69032084 -9.83274712 3.10253255 -7 0 C-4.30234372 -1.34882814 -2.84835666 -0.80338265 0 0 Z " fill="#EEEEEE" transform="translate(678,657)"/>
<path d="M0 0 C0.33 0 0.66 0 1 0 C1.50710729 4.49922848 2.00440809 8.99948972 2.5 13.5 C2.64308594 14.7684375 2.78617187 16.036875 2.93359375 17.34375 C3.61782242 23.59955496 4.19071959 29.70625337 4 36 C4.66 36 5.32 36 6 36 C6.33 37.98 6.66 39.96 7 42 C6.01 42 5.02 42 4 42 C0.79085644 28.10509117 -0.37260958 14.2212657 0 0 Z " fill="#0A0A0A" transform="translate(321,392)"/>
<path d="M0 0 C0.66 0.33 1.32 0.66 2 1 C0.76361863 4.70914411 -0.35566228 5.14368703 -3.62109375 7.171875 C-5.02391602 8.04392578 -5.02391602 8.04392578 -6.45507812 8.93359375 C-7.43927734 9.53300781 -8.42347656 10.13242187 -9.4375 10.75 C-10.41783203 11.36488281 -11.39816406 11.97976563 -12.40820312 12.61328125 C-17.85694304 15.96577505 -17.85694304 15.96577505 -20 17 C-20.66 16.67 -21.32 16.34 -22 16 C-22 15.34 -22 14.68 -22 14 C-20.91460938 13.40832031 -19.82921875 12.81664062 -18.7109375 12.20703125 C-17.26543895 11.40919114 -15.82013685 10.61099506 -14.375 9.8125 C-13.66214844 9.42513672 -12.94929687 9.03777344 -12.21484375 8.63867188 C-7.70494131 6.13546915 -3.85836995 3.4262812 0 0 Z " fill="#EAEAEA" transform="translate(585,662)"/>
<path d="M0 0 C0.99 0 1.98 0 3 0 C2.44968049 4.58599596 1.48705291 8.63797812 0 13 C0 13.99 0 14.98 0 16 C-0.66 16 -1.32 16 -2 16 C-1.67 17.98 -1.34 19.96 -1 22 C-1.99 22.33 -2.98 22.66 -4 23 C-3.48400816 15.1177798 -1.9078547 7.65541695 0 0 Z " fill="#1C1D1E" transform="translate(619,664)"/>
<path d="M0 0 C0.33 0 0.66 0 1 0 C1.33 4.29 1.66 8.58 2 13 C2.33 13 2.66 13 3 13 C3 18.28 3 23.56 3 29 C2.01 29.33 1.02 29.66 0 30 C0 20.1 0 10.2 0 0 Z " fill="#18181A" transform="translate(1014,449)"/>
<path d="M0 0 C0.66 0.33 1.32 0.66 2 1 C2 1.33 2 1.66 2 2 C3.65 1.34 5.3 0.68 7 0 C3.90630569 3.27047684 1.0697162 6.01731775 -3 8 C-4.32 8 -5.64 8 -7 8 C-6.875 5.6875 -6.875 5.6875 -6 3 C-3.0625 1.125 -3.0625 1.125 0 0 Z " fill="#0B0A0B" transform="translate(754,665)"/>
<path d="M0 0 C5.61 0 11.22 0 17 0 C16.01 0.33 15.02 0.66 14 1 C14 1.66 14 2.32 14 3 C7.73 3 1.46 3 -5 3 C-5 2.67 -5 2.34 -5 2 C-3.35 2 -1.7 2 0 2 C0 1.34 0 0.68 0 0 Z " fill="#171819" transform="translate(189,348)"/>
<path d="M0 0 C0.66 0 1.32 0 2 0 C3.00926479 4.15626368 3.10239579 8.04365094 3.0625 12.3125 C3.05347656 13.56675781 3.04445313 14.82101562 3.03515625 16.11328125 C3.01775391 17.54220703 3.01775391 17.54220703 3 19 C2.67 19 2.34 19 2 19 C1.67 17.35 1.34 15.7 1 14 C0.01 14.495 0.01 14.495 -1 15 C-1.10251672 9.87416389 -1.03590199 5.05002222 0 0 Z " fill="#0F0F0F" transform="translate(1287,410)"/>
<path d="M0 0 C0.33 0 0.66 0 1 0 C1.09579384 8.07861415 1.12513633 15.98340366 0 24 C-1.63219407 21.12218415 -2.25528532 19.04423803 -2.265625 15.7421875 C-2.26820313 14.95199219 -2.27078125 14.16179687 -2.2734375 13.34765625 C-2.26570312 12.53167969 -2.25796875 11.71570313 -2.25 10.875 C-2.25773438 10.05128906 -2.26546875 9.22757812 -2.2734375 8.37890625 C-2.27085937 7.59128906 -2.26828125 6.80367188 -2.265625 5.9921875 C-2.26336914 5.27401855 -2.26111328 4.55584961 -2.25878906 3.81591797 C-2 2 -2 2 0 0 Z " fill="#191A1B" transform="translate(1000,414)"/>
<path d="M0 0 C2.00620099 6.16088672 -0.33923564 13.29836208 -3 19 C-3.66 18.67 -4.32 18.34 -5 18 C-4.7168444 15.91549283 -4.42314331 13.83241633 -4.125 11.75 C-3.96257812 10.58984375 -3.80015625 9.4296875 -3.6328125 8.234375 C-3.00815171 5.04166431 -2.34280704 2.34280704 0 0 Z " fill="#19191A" transform="translate(1219,408)"/>
<path d="M0 0 C2.24658203 -0.34057617 2.24658203 -0.34057617 5.0078125 -0.29296875 C5.99394531 -0.28330078 6.98007813 -0.27363281 7.99609375 -0.26367188 C9.02863281 -0.23853516 10.06117188 -0.21339844 11.125 -0.1875 C12.68541016 -0.16719727 12.68541016 -0.16719727 14.27734375 -0.14648438 C16.85207627 -0.11105228 19.4257833 -0.06165221 22 0 C22 0.33 22 0.66 22 1 C16.75044832 3.15758273 12.19189716 3.24042211 6.625 3.125 C5.79355469 3.11597656 4.96210938 3.10695313 4.10546875 3.09765625 C2.07018663 3.0742622 0.03505436 3.03839725 -2 3 C-1.34 2.01 -0.68 1.02 0 0 Z " fill="#1C1C1E" transform="translate(192,545)"/>
<path d="M0 0 C0.33 0 0.66 0 1 0 C2.0735426 11.33183857 2.0735426 11.33183857 -0.55859375 15.421875 C-2.29457246 17.11244582 -4.01762554 18.60930363 -6 20 C-6 17 -6 17 -3.4375 14.125 C-0.66168415 11.28050802 -0.66168415 11.28050802 -1.1875 8.125 C-1.455625 7.42375 -1.72375 6.7225 -2 6 C-2.99 6 -3.98 6 -5 6 C-3.35830472 3.97945196 -1.69088222 1.97956942 0 0 Z " fill="#030303" transform="translate(859,666)"/>
<path d="M0 0 C1.81410296 2.86807123 2.32938587 5.39970656 2.625 8.75 C2.69976563 9.54921875 2.77453125 10.3484375 2.8515625 11.171875 C2.92503906 12.07679688 2.92503906 12.07679688 3 13 C2.34 13 1.68 13 1 13 C0.34 9.37 -0.32 5.74 -1 2 C-5.12612615 1.55155147 -5.12612615 1.55155147 -7.75 4.5 C-8.4925 5.325 -9.235 6.15 -10 7 C-9.67 4.69 -9.34 2.38 -9 0 C-5.68989426 -1.10336858 -3.3186024 -1.13531135 0 0 Z " fill="#0B0B0C" transform="translate(907,658)"/>
<path d="M0 0 C0.33 0.66 0.66 1.32 1 2 C-1.55429214 8.50096158 -4.56362021 14.52298135 -10 19 C-10.99 18.67 -11.98 18.34 -13 18 C-12.26394531 17.31550781 -11.52789063 16.63101563 -10.76953125 15.92578125 C-7.83413742 12.99038742 -5.78118928 9.75114191 -3.6875 6.1875 C-3.32849609 5.59001953 -2.96949219 4.99253906 -2.59960938 4.37695312 C-1.72655376 2.92186044 -0.86233309 1.46147271 0 0 Z " fill="#E5E5E5" transform="translate(743,658)"/>
<path d="M0 0 C1.4606285 2.64738916 2 3.89448334 2 7 C0.125 9.6875 0.125 9.6875 -2 12 C-2.66 12 -3.32 12 -4 12 C-3.28571429 3.42857143 -3.28571429 3.42857143 0 0 Z " fill="#0B0C0C" transform="translate(769,667)"/>
<path d="M0 0 C0.99 0 1.98 0 3 0 C3.85712696 2.39995548 4.22584094 3.51605512 3.125 5.875 C2.75375 6.57625 2.3825 7.2775 2 8 C1.61709538 9.99110401 1.27395385 11.99100513 1 14 C0.01 13.67 -0.98 13.34 -2 13 C-1.41196203 9.97580475 -0.77321882 6.98241547 0 4 C-0.99 4.495 -0.99 4.495 -2 5 C-1.34 3.35 -0.68 1.7 0 0 Z " fill="#0A0B0B" transform="translate(742,657)"/>
<path d="M0 0 C0.99 0 1.98 0 3 0 C3 5.28 3 10.56 3 16 C2.34 16.33 1.68 16.66 1 17 C-0.18681726 13.43954823 -0.09689832 10.56191663 -0.0625 6.8125 C-0.05347656 5.54019531 -0.04445313 4.26789063 -0.03515625 2.95703125 C-0.02355469 1.98121094 -0.01195312 1.00539063 0 0 Z " fill="#171818" transform="translate(711,410)"/>
<path d="M0 0 C0.33 0.66 0.66 1.32 1 2 C-0.21484375 4.8203125 -0.21484375 4.8203125 -1.9375 8.125 C-2.50339844 9.22070312 -3.06929687 10.31640625 -3.65234375 11.4453125 C-4.09707031 12.28835938 -4.54179688 13.13140625 -5 14 C-5.99 14 -6.98 14 -8 14 C-6.58465326 9.16423199 -4.6634683 5.24490261 -2 1 C-1.34 0.67 -0.68 0.34 0 0 Z " fill="#EBEBEB" transform="translate(847,694)"/>
<path d="M0 0 C0.33 0 0.66 0 1 0 C1.33 1.65 1.66 3.3 2 5 C3.32 4.67 4.64 4.34 6 4 C5.67 4.99 5.34 5.98 5 7 C5.39397335 9.63804589 5.39397335 9.63804589 6 12 C3.03 11.505 3.03 11.505 0 11 C0 7.37 0 3.74 0 0 Z " fill="#0A0B0C" transform="translate(840,476)"/>
<path d="M0 0 C0.66 0.33 1.32 0.66 2 1 C2 4.3 2 7.6 2 11 C2.66 11.33 3.32 11.66 4 12 C2.68 12.33 1.36 12.66 0 13 C-1.29721449 9.10835652 -1.13033993 6.10570774 -1 2 C-0.67 1.34 -0.34 0.68 0 0 Z " fill="#FDFCFC" transform="translate(729,663)"/>
<path d="M0 0 C0.33 4.29 0.66 8.58 1 13 C0.01 13 -0.98 13 -2 13 C-1.96744792 11.01432292 -1.93489583 9.02864583 -1.90234375 7.04296875 C-1.91736783 4.79694539 -1.91736783 4.79694539 -3 2 C-3.99 1.67 -4.98 1.34 -6 1 C-3.92446352 0.4465236 -2.15634036 0 0 0 Z " fill="#1D1D1E" transform="translate(1299,517)"/>
<path d="M0 0 C0 3.81991716 -1.23261227 5.11307909 -3.4375 8.1875 C-4.07558594 9.08855469 -4.71367188 9.98960937 -5.37109375 10.91796875 C-5.90863281 11.60503906 -6.44617188 12.29210937 -7 13 C-7.33 13 -7.66 13 -8 13 C-8.5 9.875 -8.5 9.875 -8 6 C-5.59682455 3.57047394 -2.91082436 1.7737836 0 0 Z " fill="#1D1E1E" transform="translate(592,660)"/>
<path d="M0 0 C0.99 0.33 1.98 0.66 3 1 C3 6.28 3 11.56 3 17 C2.67 17 2.34 17 2 17 C2 14.69 2 12.38 2 10 C1.34 10 0.68 10 0 10 C0 6.7 0 3.4 0 0 Z " fill="#1A1A1B" transform="translate(1014,410)"/>
<path d="M0 0 C2 2 2 2 2.25 5.3125 C2.01863452 8.72514084 1.4765288 10.95465935 0 14 C-0.66 13.67 -1.32 13.34 -2 13 C-1.34 8.71 -0.68 4.42 0 0 Z " fill="#1F2020" transform="translate(1208,452)"/>
<path d="M0 0 C0.33 0 0.66 0 1 0 C1.24913692 2.74951111 1.47491836 5.4976272 1.6875 8.25 C1.76033203 9.02730469 1.83316406 9.80460937 1.90820312 10.60546875 C2.33135078 16.42997175 2.33135078 16.42997175 0.51953125 19.546875 C0.01808594 20.02640625 -0.48335938 20.5059375 -1 21 C-1.10808032 13.90272572 -0.93854006 7.03905044 0 0 Z " fill="#18191B" transform="translate(334,352)"/>
<path d="M0 0 C0.33 0 0.66 0 1 0 C1 2.97 1 5.94 1 9 C0.01 9.33 -0.98 9.66 -2 10 C-2.33 11.65 -2.66 13.3 -3 15 C-4.43410153 11.21180727 -3.51009497 8.93478721 -2.0625 5.25 C-1.49208984 3.77273438 -1.49208984 3.77273438 -0.91015625 2.265625 C-0.60980469 1.51796875 -0.30945313 0.7703125 0 0 Z " fill="#090909" transform="translate(397,352)"/>
<path d="M0 0 C0.33 0.66 0.66 1.32 1 2 C-0.64964112 6.68845372 -2.19890273 9.68936689 -6 13 C-6.66 13.66 -7.32 14.32 -8 15 C-7.35256333 11.17009294 -5.54688763 8.4716102 -3.4375 5.25 C-2.79683594 4.26515625 -2.15617188 3.2803125 -1.49609375 2.265625 C-1.00238281 1.51796875 -0.50867188 0.7703125 0 0 Z " fill="#0A0A0A" transform="translate(613,666)"/>
<path d="M0 0 C0 1.65 0 3.3 0 5 C-0.66 4.34 -1.32 3.68 -2 3 C-2.556875 3.804375 -3.11375 4.60875 -3.6875 5.4375 C-6.21864487 8.24228216 -7.32579134 8.69381595 -11 9 C-10.34 8.67 -9.68 8.34 -9 8 C-8.7525 7.401875 -8.505 6.80375 -8.25 6.1875 C-6.72353076 3.51617882 -3.32653961 0 0 0 Z " fill="#D3D4D4" transform="translate(919,668)"/>
<path d="M0 0 C0.33 0.66 0.66 1.32 1 2 C1.66 2 2.32 2 3 2 C2.34 5.96 1.68 9.92 1 14 C0.01 13.34 -0.98 12.68 -2 12 C-1.34 8.04 -0.68 4.08 0 0 Z " fill="#E5E6E7" transform="translate(653,664)"/>
<path d="M0 0 C0.99 0.33 1.98 0.66 3 1 C-0.33333333 4.33333333 -3.66666667 7.66666667 -7 11 C-7 7.22089522 -6.00296038 6.53893899 -3.5 3.8125 C-2.8503125 3.09707031 -2.200625 2.38164063 -1.53125 1.64453125 C-1.0259375 1.10183594 -0.520625 0.55914063 0 0 Z " fill="#EAEAEA" transform="translate(777,654)"/>
<path d="M0 0 C0.99 0 1.98 0 3 0 C2.48041715 4.37934119 1.94324258 8.68803391 1 13 C0.01 13 -0.98 13 -2 13 C-1.34 8.71 -0.68 4.42 0 0 Z " fill="#1A1A1B" transform="translate(863,680)"/>
<path d="M0 0 C5.61 0.33 11.22 0.66 17 1 C17 1.33 17 1.66 17 2 C5.47835991 3.33257403 5.47835991 3.33257403 0 2 C0 1.34 0 0.68 0 0 Z " fill="#212223" transform="translate(580,408)"/>
<path d="M0 0 C0.99 0.495 0.99 0.495 2 1 C2.6328125 3.28515625 2.6328125 3.28515625 3.125 6.0625 C3.29257812 6.98160156 3.46015625 7.90070313 3.6328125 8.84765625 C3.75398437 9.55792969 3.87515625 10.26820313 4 11 C3.01 11.33 2.02 11.66 1 12 C0.03929566 9.11788698 -0.10581883 7.30149956 -0.0625 4.3125 C-0.05347656 3.50425781 -0.04445313 2.69601562 -0.03515625 1.86328125 C-0.02355469 1.24839844 -0.01195312 0.63351562 0 0 Z " fill="#232323" transform="translate(838,460)"/>
<path d="M0 0 C0.33 0 0.66 0 1 0 C1.10477512 5.78591511 0.99250545 11.29309366 0 17 C-0.33 17 -0.66 17 -1 17 C-1.22126178 14.54220024 -1.42750395 12.08472352 -1.625 9.625 C-1.68945312 8.92632812 -1.75390625 8.22765625 -1.8203125 7.5078125 C-1.96119739 5.67630889 -1.98761659 3.83687252 -2 2 C-1.34 1.34 -0.68 0.68 0 0 Z " fill="#1B1C1D" transform="translate(1081,463)"/>
<path d="M0 0 C0.66 0.99 1.32 1.98 2 3 C2.66 3.66 3.32 4.32 4 5 C4.125 8.125 4.125 8.125 4 11 C1 10 1 10 -0.125 8.1875 C-0.96404166 6.08989585 -1.70105834 4.24206241 -2 2 C-1.34 1.34 -0.68 0.68 0 0 Z " fill="#222323" transform="translate(1287,421)"/>
<path d="M0 0 C0.33 0.66 0.66 1.32 1 2 C-0.98 4.64 -2.96 7.28 -5 10 C-5.99 9.67 -6.98 9.34 -8 9 C-6.85459775 7.68712379 -5.70866567 6.37470979 -4.5625 5.0625 C-3.92441406 4.33160156 -3.28632812 3.60070312 -2.62890625 2.84765625 C-1.77458541 1.87860647 -0.91348825 0.91348825 0 0 Z " fill="#151516" transform="translate(776,671)"/>
<path d="M0 0 C0.99 0 1.98 0 3 0 C3.6875 1.6875 3.6875 1.6875 4 4 C2.6875 6.75 2.6875 6.75 1 9 C0.34 9 -0.32 9 -1 9 C-0.67 6.03 -0.34 3.06 0 0 Z " fill="#1E1F20" transform="translate(865,665)"/>
<path d="M0 0 C0.99 0 1.98 0 3 0 C3.33 0.99 3.66 1.98 4 3 C1.66666667 7.66666667 1.66666667 7.66666667 -1 9 C-1.125 2.25 -1.125 2.25 0 0 Z " fill="#161617" transform="translate(849,665)"/>
<path d="M0 0 C2 3 2 3 1.5390625 5.91796875 C1.23742187 6.99691406 0.93578125 8.07585937 0.625 9.1875 C0.32851563 10.27417969 0.03203125 11.36085938 -0.2734375 12.48046875 C-0.51320313 13.31191406 -0.75296875 14.14335937 -1 15 C-2.01243785 11.96268644 -2.00685724 10.59613977 -1.625 7.5 C-1.53476562 6.7265625 -1.44453125 5.953125 -1.3515625 5.15625 C-1 3 -1 3 0 0 Z " fill="#1B1C1D" transform="translate(383,393)"/>
<path d="M0 0 C0.99 0 1.98 0 3 0 C2.67 2.97 2.34 5.94 2 9 C1.01 9.33 0.02 9.66 -1 10 C-0.67 6.7 -0.34 3.4 0 0 Z " fill="#18181A" transform="translate(561,666)"/>
<path d="M0 0 C0.33 0 0.66 0 1 0 C1 4.29 1 8.58 1 13 C-1.33061852 9.50407222 -1.70295038 7.15869464 -2 3 C-1.34 2.01 -0.68 1.02 0 0 Z " fill="#030203" transform="translate(727,662)"/>
<path d="M0 0 C0 3 0 3 -1.96875 5.26171875 C-2.8040625 6.06222656 -3.639375 6.86273437 -4.5 7.6875 C-5.3353125 8.49574219 -6.170625 9.30398438 -7.03125 10.13671875 C-7.6809375 10.75160156 -8.330625 11.36648438 -9 12 C-9.66 11.34 -10.32 10.68 -11 10 C-9.93458984 9.04287109 -9.93458984 9.04287109 -8.84765625 8.06640625 C-7.46900391 6.82697266 -7.46900391 6.82697266 -6.0625 5.5625 C-4.68771484 4.32693359 -4.68771484 4.32693359 -3.28515625 3.06640625 C-1.61665644 1.56046061 -1.61665644 1.56046061 0 0 Z " fill="#080909" transform="translate(600,685)"/>
<path d="M0 0 C0.99 0 1.98 0 3 0 C3 2.64 3 5.28 3 8 C3.66 8.33 4.32 8.66 5 9 C3.68 8.67 2.36 8.34 1 8 C0.67 5.36 0.34 2.72 0 0 Z " fill="#E3E4E4" transform="translate(905,667)"/>
<path d="M0 0 C1.32 0.66 2.64 1.32 4 2 C3 4 3 4 1 5 C0.67 4.34 0.34 3.68 0 3 C-0.66 3.66 -1.32 4.32 -2 5 C-2.99 5.33 -3.98 5.66 -5 6 C-3.63016497 2.83884224 -3.0109362 2.0072908 0 0 Z " fill="#EAEAEA" transform="translate(727,660)"/>
<path d="M0 0 C0.99 0 1.98 0 3 0 C2.46274105 3.37705625 1.88935377 6.696686 1 10 C0.01 10 -0.98 10 -2 10 C-1.34 6.7 -0.68 3.4 0 0 Z " fill="#181819" transform="translate(1076,488)"/>
<path d="M0 0 C1.32 0 2.64 0 4 0 C3.67 1.65 3.34 3.3 3 5 C1.68 5 0.36 5 -1 5 C-0.67 3.35 -0.34 1.7 0 0 Z " fill="#E5E6E6" transform="translate(638,649)"/>
<path d="M0 0 C0.33 0 0.66 0 1 0 C1 3.96 1 7.92 1 12 C0.01 11.34 -0.98 10.68 -2 10 C-2.36328125 8.125 -2.36328125 8.125 -2.3125 6 C-2.30669922 4.948125 -2.30669922 4.948125 -2.30078125 3.875 C-2 2 -2 2 0 0 Z " fill="#29292B" transform="translate(843,498)"/>
<path d="M0 0 C0.5625 1.9375 0.5625 1.9375 1 4 C0.67 4.33 0.34 4.66 0 5 C-0.04063832 6.66617115 -0.042721 8.33388095 0 10 C-0.99 9.67 -1.98 9.34 -3 9 C-2.4140625 2.84765625 -2.4140625 2.84765625 -2 1 C-1.34 0.67 -0.68 0.34 0 0 Z " fill="#19191A" transform="translate(1202,491)"/>
<path d="M0 0 C0.33 0 0.66 0 1 0 C1.33 5.28 1.66 10.56 2 16 C0 12 0 12 0 10 C-0.66 10 -1.32 10 -2 10 C-1.34 6.7 -0.68 3.4 0 0 Z " fill="#252627" transform="translate(327,418)"/>
<path d="M0 0 C0.66 0.33 1.32 0.66 2 1 C0.35 1.66 -1.3 2.32 -3 3 C-2.01 3.66 -1.02 4.32 0 5 C-1.65 5.66 -3.3 6.32 -5 7 C-5 5.35 -5 3.7 -5 2 C-2.625 0.9375 -2.625 0.9375 0 0 Z " fill="#0B0B0C" transform="translate(673,667)"/>
<path d="M0 0 C0.6875 1.8125 0.6875 1.8125 1 4 C-0.3125 5.75 -0.3125 5.75 -2 7 C-2.66 7 -3.32 7 -4 7 C-4 5.35 -4 3.7 -4 2 C-2.68 1.34 -1.36 0.68 0 0 Z " fill="#111211" transform="translate(880,667)"/>
<path d="M0 0 C0.33 0 0.66 0 1 0 C1.125 7.625 1.125 7.625 0 11 C-0.99 11 -1.98 11 -3 11 C-2.01 7.37 -1.02 3.74 0 0 Z " fill="#1E1E1F" transform="translate(361,461)"/>
<path d="M0 0 C1.46726798 3.81489674 0.43336419 6.29011622 -1 10 C-1.66 9.67 -2.32 9.34 -3 9 C-2.4140625 2.84765625 -2.4140625 2.84765625 -2 1 C-1.34 0.67 -0.68 0.34 0 0 Z " fill="#191A1A" transform="translate(1224,383)"/>
<path d="M0 0 C0.99 0 1.98 0 3 0 C2.67 2.64 2.34 5.28 2 8 C1.01 8 0.02 8 -1 8 C-0.67 5.36 -0.34 2.72 0 0 Z " fill="#1A1A1B" transform="translate(1224,374)"/>
<path d="M0 0 C0.99 0 1.98 0 3 0 C2.01 2.97 1.02 5.94 0 9 C-0.66 8.67 -1.32 8.34 -2 8 C-1.34 5.36 -0.68 2.72 0 0 Z " fill="#DEDFDF" transform="translate(952,691)"/>
<path d="M0 0 C0.99 0.33 1.98 0.66 3 1 C0.69 3.31 -1.62 5.62 -4 8 C-4.33 7.01 -4.66 6.02 -5 5 C-3.35 3.35 -1.7 1.7 0 0 Z " fill="#EBEBEB" transform="translate(948,675)"/>
<path d="M0 0 C0.66 0 1.32 0 2 0 C0.8141763 3.37503669 -0.27573689 5.64722731 -3 8 C-3.66 7.67 -4.32 7.34 -5 7 C-4.21654285 5.82780457 -3.42297164 4.66236332 -2.625 3.5 C-2.18414063 2.8503125 -1.74328125 2.200625 -1.2890625 1.53125 C-0.65097656 0.77328125 -0.65097656 0.77328125 0 0 Z " fill="#F9F9FA" transform="translate(677,659)"/>
<path d="M0 0 C0.66 0 1.32 0 2 0 C1.67 2.64 1.34 5.28 1 8 C0.01 7.67 -0.98 7.34 -2 7 C-1.34 4.69 -0.68 2.38 0 0 Z " fill="#18191A" transform="translate(775,633)"/>
<path d="M0 0 C0.99 0.33 1.98 0.66 3 1 C3.73046875 3.06640625 3.73046875 3.06640625 4.1875 5.5625 C4.34605469 6.38878906 4.50460938 7.21507812 4.66796875 8.06640625 C4.77753906 8.70449219 4.88710937 9.34257812 5 10 C4.34 10 3.68 10 3 10 C3 9.01 3 8.02 3 7 C2.34 7 1.68 7 1 7 C0.67 4.69 0.34 2.38 0 0 Z " fill="#17181A" transform="translate(131,490)"/>
<path d="M0 0 C2.31 0 4.62 0 7 0 C7 0.66 7 1.32 7 2 C8.32 2 9.64 2 11 2 C11 2.66 11 3.32 11 4 C7.37 3.34 3.74 2.68 0 2 C0 1.34 0 0.68 0 0 Z " fill="#171718" transform="translate(222,478)"/>
<path d="M0 0 C-0.33 0.99 -0.66 1.98 -1 3 C-7.625 3.25 -7.625 3.25 -11 1 C-7.26513121 0.4254048 -3.78706732 0 0 0 Z " fill="#1E1F20" transform="translate(220,418)"/>
<path d="M0 0 C0.99 0 1.98 0 3 0 C3 0.66 3 1.32 3 2 C2.34 2 1.68 2 1 2 C0.67 3.65 0.34 5.3 0 7 C-0.99 7 -1.98 7 -3 7 C-2.01 4.69 -1.02 2.38 0 0 Z " fill="#181819" transform="translate(898,668)"/>
<path d="M0 0 C0.66 0 1.32 0 2 0 C2.33 1.65 2.66 3.3 3 5 C-0.75 6.125 -0.75 6.125 -3 5 C-1.125 1.125 -1.125 1.125 0 0 Z " fill="#09090A" transform="translate(886,662)"/>
<path d="M0 0 C2.375 -0.1875 2.375 -0.1875 5 0 C5.66 0.99 6.32 1.98 7 3 C6.34 3 5.68 3 5 3 C4.67 3.66 4.34 4.32 4 5 C3.67 4.01 3.34 3.02 3 2 C1.68 2.33 0.36 2.66 -1 3 C-0.67 2.01 -0.34 1.02 0 0 Z " fill="#F4F4F5" transform="translate(780,652)"/>
<path d="M0 0 C1.26339822 3.79019466 0.49719015 5.37522384 -1 9 C-1.99 9.495 -1.99 9.495 -3 10 C-2.88637738 8.5199159 -2.75877092 7.04089926 -2.625 5.5625 C-2.55539062 4.73878906 -2.48578125 3.91507813 -2.4140625 3.06640625 C-2.27742188 2.38449219 -2.14078125 1.70257812 -2 1 C-1.34 0.67 -0.68 0.34 0 0 Z " fill="#171718" transform="translate(1198,511)"/>
<path d="M0 0 C2.1640625 0.0234375 2.1640625 0.0234375 4.625 0.375 C5.85089844 0.54128906 5.85089844 0.54128906 7.1015625 0.7109375 C7.72804687 0.80632812 8.35453125 0.90171875 9 1 C4.8204355 3.78637633 2.85331323 2.79562512 -2 2 C-1.34 1.34 -0.68 0.68 0 0 Z " fill="#1D1D1E" transform="translate(237,481)"/>
<path d="M0 0 C0.66 0 1.32 0 2 0 C1.51421457 3.12290635 1.0013988 5.99580359 0 9 C-0.99 9 -1.98 9 -3 9 C-2.01 6.03 -1.02 3.06 0 0 Z " fill="#1A1A1B" transform="translate(374,423)"/>
<path d="M0 0 C0.99 0 1.98 0 3 0 C2.7452486 1.31571603 2.47065859 2.62760376 2.1875 3.9375 C2.03667969 4.66839844 1.88585937 5.39929688 1.73046875 6.15234375 C1.48941406 6.76207031 1.24835937 7.37179687 1 8 C0.01 8.33 -0.98 8.66 -2 9 C-1.51421457 5.87709365 -1.0013988 3.00419641 0 0 Z " fill="#191A1C" transform="translate(940,393)"/>
<path d="M0 0 C0.66 0 1.32 0 2 0 C1.34 2.97 0.68 5.94 0 9 C-0.66 8.01 -1.32 7.02 -2 6 C-1.125 2.8125 -1.125 2.8125 0 0 Z " fill="#181819" transform="translate(386,386)"/>
<path d="M0 0 C1.96713413 2.95070119 2.65358161 4.53581611 3 8 C2.01 9.485 2.01 9.485 1 11 C-1.125 3.375 -1.125 3.375 0 0 Z " fill="#1F1F1F" transform="translate(257,362)"/>
<path d="M0 0 C0.33 0.99 0.66 1.98 1 3 C-1.97 5.475 -1.97 5.475 -5 8 C-5 5 -5 5 -2.5 2.3125 C-1.675 1.549375 -0.85 0.78625 0 0 Z " fill="#DCDCDD" transform="translate(775,669)"/>
<path d="M0 0 C0.66 0.33 1.32 0.66 2 1 C0.1875 3.5 0.1875 3.5 -2 6 C-2.99 6 -3.98 6 -5 6 C-4.75 4.125 -4.75 4.125 -4 2 C-2.0625 0.6875 -2.0625 0.6875 0 0 Z " fill="#101012" transform="translate(754,665)"/>
<path d="M0 0 C0.33 0.66 0.66 1.32 1 2 C1.66 2 2.32 2 3 2 C2.67 3.32 2.34 4.64 2 6 C0.68 6.33 -0.64 6.66 -2 7 C-1.125 1.125 -1.125 1.125 0 0 Z " fill="#171819" transform="translate(824,664)"/>
<path d="M0 0 C0.66 0.99 1.32 1.98 2 3 C-0.75 8.875 -0.75 8.875 -3 10 C-3 8.35 -3 6.7 -3 5 C-2.34 5 -1.68 5 -1 5 C-0.67 3.35 -0.34 1.7 0 0 Z " fill="#1A1B1B" transform="translate(771,654)"/>
<path d="M0 0 C0.36923077 5.53846154 0.36923077 5.53846154 -1.5 7.875 C-2.2425 8.431875 -2.2425 8.431875 -3 9 C-3.33 6.69 -3.66 4.38 -4 2 C-1 0 -1 0 0 0 Z " fill="#18181A" transform="translate(612,674)"/>
<path d="M0 0 C1.65 1.65 3.3 3.3 5 5 C3.02 5.66 1.04 6.32 -1 7 C-0.67 4.69 -0.34 2.38 0 0 Z " fill="#19191A" transform="translate(739,668)"/>
<path d="M0 0 C1.25541557 3.76624671 0.37061958 5.37188934 -1 9 C-1.66 8.67 -2.32 8.34 -3 8 C-2.45276317 4.62537285 -1.9451 2.91765 0 0 Z " fill="#0F0E0F" transform="translate(653,661)"/>
<path d="M0 0 C0.66 0 1.32 0 2 0 C0.70700306 2.88437779 -0.65941363 4.87219421 -3 7 C-3.66 6.67 -4.32 6.34 -5 6 C-3.38405168 3.95880212 -1.7143618 1.95927063 0 0 Z " fill="#212021" transform="translate(882,659)"/>
<path d="M0 0 C1.0625 1.8125 1.0625 1.8125 2 4 C1.0022242 6.99332739 0.2477975 7.94766315 -2 10 C-2 8.02 -2 6.04 -2 4 C-1.34 4 -0.68 4 0 4 C0 2.68 0 1.36 0 0 Z " fill="#222323" transform="translate(733,664)"/>
<path d="M0 0 C0.66 0.33 1.32 0.66 2 1 C1.67 2.98 1.34 4.96 1 7 C0.01 6.67 -0.98 6.34 -2 6 C-1.34 4.02 -0.68 2.04 0 0 Z " fill="#19191A" transform="translate(564,658)"/>
<path d="M0 0 C0.66 0.33 1.32 0.66 2 1 C-1.625 5.875 -1.625 5.875 -5 7 C-3.70700306 4.11562221 -2.34058637 2.12780579 0 0 Z " fill="#101010" transform="translate(753,659)"/>
<path d="M0 0 C1.33332095 2.6666419 0.67102033 4.16680303 0 7 C-0.99 6.67 -1.98 6.34 -3 6 C-2.625 3.5625 -2.625 3.5625 -2 1 C-1.34 0.67 -0.68 0.34 0 0 Z " fill="#171819" transform="translate(718,656)"/>
<path d="M0 0 C0.66 0 1.32 0 2 0 C1.3125 2.375 1.3125 2.375 0 5 C-2.625 6.3125 -2.625 6.3125 -5 7 C-4.21654285 5.82780457 -3.42297164 4.66236332 -2.625 3.5 C-2.18414063 2.8503125 -1.74328125 2.200625 -1.2890625 1.53125 C-0.65097656 0.77328125 -0.65097656 0.77328125 0 0 Z " fill="#151515" transform="translate(674,659)"/>
<path d="M0 0 C0.93065133 2.60582371 1.14917407 3.64198224 0.0625 6.25 C-0.4634375 7.11625 -0.4634375 7.11625 -1 8 C-1.66 7.67 -2.32 7.34 -3 7 C-2.625 4.0625 -2.625 4.0625 -2 1 C-1.34 0.67 -0.68 0.34 0 0 Z " fill="#191A1C" transform="translate(661,649)"/>
<path d="M0 0 C0.99 0.33 1.98 0.66 3 1 C3 2.65 3 4.3 3 6 C2.67 5.01 2.34 4.02 2 3 C0.68 3.99 -0.64 4.98 -2 6 C-2 3 -2 3 0 0 Z " fill="#1C1B1D" transform="translate(630,608)"/>
<path d="M0 0 C0.66 0.33 1.32 0.66 2 1 C2 3.64 2 6.28 2 9 C0.5 7.8125 0.5 7.8125 -1 6 C-1.25 3.375 -1.25 3.375 -1 1 C-0.67 0.67 -0.34 0.34 0 0 Z " fill="#18181A" transform="translate(1150,446)"/>
<path d="M0 0 C0 1.98 0 3.96 0 6 C-0.99 6 -1.98 6 -3 6 C-3 4.35 -3 2.7 -3 1 C-1 0 -1 0 0 0 Z " fill="#1D1D1F" transform="translate(1002,406)"/>
<path d="M0 0 C0 2.62113708 -0.31292445 4.50935112 -1 7 C-1.99 7 -2.98 7 -4 7 C-3.67 5.02 -3.34 3.04 -3 1 C-2.01 0.67 -1.02 0.34 0 0 Z " fill="#1A1A1B" transform="translate(197,404)"/>
<path d="M0 0 C0 2.97 0 5.94 0 9 C-3 6 -3 6 -3.1875 3.3125 C-3.125625 2.549375 -3.06375 1.78625 -3 1 C-1 0 -1 0 0 0 Z " fill="#17181A" transform="translate(1148,404)"/>
</svg>
